<svg width="201" height="63" viewBox="0 0 201 63" fill="none" xmlns="http://www.w3.org/2000/svg">
<g clip-path="url(#clip0_187_3)">
<path d="M105.933 15.8291C105.933 18.0996 104.112 19.9278 101.851 19.9278C99.5913 19.9278 97.7715 18.0996 97.7715 15.8291C97.7715 13.5586 99.5292 11.7304 101.851 11.7304C104.175 11.7934 105.933 13.6222 105.933 15.8291V15.8291ZM89.1086 24.0908V25.1C89.1086 25.1 87.1633 22.5762 83.02 22.5762C76.1783 22.5762 70.8416 27.8108 70.8416 35.0626C70.8416 42.252 76.1156 47.5489 83.02 47.5489C87.226 47.5489 89.1086 44.9635 89.1086 44.9635V46.0351C89.1086 46.5397 89.4861 46.9171 89.9878 46.9171H95.0718V23.205H89.9878C89.4861 23.2069 89.1086 23.6491 89.1086 24.0908V24.0908ZM89.1086 39.2879C88.1679 40.6758 86.2841 41.874 84.0246 41.874C80.0074 41.874 76.9308 39.3516 76.9308 35.0626C76.9308 30.7743 80.0074 28.2518 84.0246 28.2518C86.222 28.2518 88.2307 29.513 89.1086 30.8373V39.2879ZM98.8388 23.2069H104.865V46.9189H98.8388V23.2069V23.2069ZM188.857 22.5756C184.714 22.5756 182.767 25.0994 182.767 25.0994V11.7934H176.741V46.9189H181.826C182.329 46.9189 182.704 46.4773 182.704 46.0357V44.9641C182.704 44.9641 184.651 47.5496 188.793 47.5496C195.636 47.5496 200.971 42.2539 200.971 35.0645C200.971 27.8751 195.636 22.5756 188.857 22.5756V22.5756ZM187.852 41.8104C185.529 41.8104 183.709 40.6134 182.767 39.2249V30.7743C183.709 29.513 185.718 28.1888 187.852 28.1888C191.87 28.1888 194.946 30.7113 194.946 34.9996C194.946 39.2879 191.87 41.8104 187.852 41.8104ZM173.603 32.8564V46.982H167.576V33.5494C167.576 29.6403 166.321 28.0628 162.933 28.0628C161.113 28.0628 159.229 29.009 158.035 30.3969V46.9196H152.01V23.2075H156.779C157.281 23.2075 157.658 23.6491 157.658 24.0908V25.1C159.416 23.2705 161.738 22.5762 164.06 22.5762C166.697 22.5762 168.895 23.3341 170.653 24.8474C172.786 26.6132 173.603 28.8831 173.603 32.8564V32.8564ZM137.381 22.5756C133.239 22.5756 131.293 25.0994 131.293 25.0994V11.7934H125.267V46.9189H130.351C130.853 46.9189 131.23 46.4773 131.23 46.0357V44.9641C131.23 44.9641 133.177 47.5496 137.319 47.5496C144.162 47.5496 149.497 42.2539 149.497 35.0645C149.56 27.8744 144.224 22.5756 137.381 22.5756V22.5756ZM136.377 41.8104C134.055 41.8104 132.235 40.6134 131.293 39.2249V30.7743C132.235 29.513 134.243 28.1888 136.377 28.1888C140.395 28.1888 143.471 30.7113 143.471 34.9996C143.471 39.2879 140.395 41.8104 136.377 41.8104ZM120.056 22.5756C121.876 22.5756 122.818 22.8919 122.818 22.8919V28.5038C122.818 28.5038 117.796 26.8009 114.658 30.3963V46.9813H108.631V23.2069H113.716C114.219 23.2069 114.594 23.6485 114.594 24.0901V25.0994C115.726 23.7745 118.174 22.5756 120.056 22.5756V22.5756ZM57.4716 44.7745C57.1581 44.0179 56.8439 43.1983 56.5304 42.504C56.0274 41.3694 55.5251 40.2965 55.0868 39.2879L55.0241 39.2249C50.692 29.765 46.0476 20.1804 41.1506 10.7218L40.9624 10.3425C40.4474 9.3613 39.9454 8.37319 39.4567 7.37844C38.8284 6.24257 38.2013 5.04559 37.1966 3.90972C35.188 1.38725 32.3002 -0.000610352 29.2249 -0.000610352C26.0856 -0.000610352 23.2611 1.38726 21.1904 3.7831C20.2484 4.91771 19.5574 6.11595 18.9303 7.25182C18.4403 8.24594 17.9384 9.23404 17.4246 10.2159L17.2358 10.5951C12.4021 20.0538 7.69438 29.639 3.36295 39.0983L3.29962 39.2237C2.86064 40.2342 2.3577 41.3058 1.85538 42.4397C1.54183 43.134 1.22828 43.8906 0.914723 44.7102C0.0982294 47.0431 -0.153253 49.2505 0.161555 51.5217C0.852 56.2516 3.99005 60.223 8.3221 61.9902C9.95447 62.6844 11.6495 62.9994 13.4067 62.9994C13.909 62.9994 14.5361 62.9364 15.0391 62.8728C17.111 62.6208 19.2451 61.9278 21.317 60.7295C23.8907 59.2787 26.3389 57.1985 29.1007 54.1714C31.8625 57.1985 34.3734 59.2787 36.8844 60.7295C38.9569 61.9278 41.0903 62.6208 43.1617 62.8728C43.664 62.937 44.2924 62.9994 44.7947 62.9994C46.5525 62.9994 48.3096 62.6844 49.8787 61.9902C54.2734 60.223 57.3487 56.1886 58.0398 51.5217C58.5384 49.3148 58.2875 47.1086 57.4716 44.7745V44.7745ZM29.1615 48.0536C25.7714 43.7652 23.574 39.7295 22.8215 36.3251C22.5079 34.8742 22.4446 33.613 22.6333 32.4778C22.7581 31.4685 23.1356 30.5853 23.638 29.8287C24.8307 28.1271 26.8394 27.0542 29.1622 27.0542C31.4856 27.0542 33.5569 28.0634 34.687 29.8287C35.1893 30.5853 35.5655 31.4692 35.6922 32.4778C35.8797 33.6136 35.817 34.9372 35.5035 36.3251C34.7478 39.6665 32.5504 43.7029 29.1615 48.0536ZM54.2069 51.0177C53.768 54.2968 51.5706 57.1354 48.4952 58.3967C46.9889 59.0267 45.3559 59.2163 43.7248 59.0267C42.1558 58.837 40.5855 58.3324 38.9544 57.3874C36.6943 56.125 34.4349 54.1714 31.7979 51.2696C35.9406 46.1623 38.4515 41.4948 39.3934 37.3337C39.833 35.3782 39.8964 33.613 39.707 31.9725C39.4568 30.3963 38.8911 28.9454 38.0125 27.6842C36.0653 24.8455 32.8006 23.2069 29.1609 23.2069C25.5212 23.2069 22.2564 24.9097 20.3105 27.6842C19.4319 28.9454 18.8663 30.3963 18.6154 31.9725C18.3646 33.613 18.4267 35.4412 18.929 37.3337C19.8703 41.4948 22.444 46.2247 26.5239 51.3327C23.9503 54.2338 21.6274 56.1892 19.3674 57.4505C17.735 58.3967 16.1666 58.9013 14.5976 59.0897C12.9031 59.2793 11.2701 59.0267 9.82655 58.4597C6.75121 57.1985 4.55383 54.3597 4.11485 51.0807C3.92672 49.5044 4.05151 47.9282 4.67987 46.1623C4.86738 45.5311 5.18218 44.9011 5.49574 44.1445C5.93534 43.1353 6.4364 42.0624 6.93934 40.9908L7.00269 40.8654C11.3335 31.4685 15.9785 21.8833 20.8122 12.5506L21.0003 12.1714C21.5033 11.2264 22.0056 10.2172 22.5073 9.27092C23.0096 8.26168 23.574 7.31544 24.2651 6.49519C25.5832 4.98322 27.3404 4.16235 29.2869 4.16235C31.2335 4.16235 32.9906 4.98322 34.3088 6.49519C34.9999 7.31733 35.5643 8.26357 36.0666 9.27092C36.5695 10.2172 37.0719 11.2264 37.5729 12.1714L37.7617 12.5506C42.5217 21.922 47.105 31.383 51.5091 40.9284V40.9914C52.0121 42.0019 52.451 43.1359 52.9533 44.1464C53.2669 44.9017 53.5811 45.5317 53.7692 46.163C54.2703 47.801 54.4584 49.3784 54.2069 51.0177V51.0177Z" fill="#A7A7A7"/>
</g>
<defs>
<clipPath id="clip0_187_3">
<rect width="201" height="63" fill="white"/>
</clipPath>
</defs>
</svg>
