<svg width="181" height="59" viewBox="0 0 181 59" fill="none" xmlns="http://www.w3.org/2000/svg">
<path d="M144.192 1.55261H150.671V44.8021H144.192V1.55261Z" fill="#AFAFAF"/>
<path d="M61.6742 16.2754C53.5124 16.2754 46.8644 22.4644 46.8644 30.9876C46.8644 39.4579 53.5124 45.6998 61.6742 45.6998C69.8361 45.6998 76.4841 39.4579 76.4841 30.9876C76.4841 22.4539 69.8361 16.2754 61.6742 16.2754V16.2754ZM61.6742 39.9015C57.2069 39.9015 53.3536 36.2261 53.3536 30.9876C53.3536 25.6963 57.2069 22.0737 61.6742 22.0737C66.1415 22.0737 69.9949 25.6963 69.9949 30.9876C69.9949 36.2261 66.1415 39.9015 61.6742 39.9015Z" fill="#838383"/>
<path d="M23.2363 20.7851V27.0269H38.205C37.7604 30.5334 36.5853 33.0998 34.7963 34.8847C32.6156 37.0604 29.2069 39.4579 23.2363 39.4579C14.0159 39.4579 6.8174 32.0437 6.8174 22.8446C6.8174 13.6455 14.0159 6.24186 23.2363 6.24186C28.2118 6.24186 31.8428 8.19575 34.521 10.6988L38.9354 6.29467C35.188 2.72487 30.2231 0 23.2363 0C10.6072 0 0 10.2552 0 22.8551C0 35.455 10.6178 45.7103 23.2363 45.7103C30.0537 45.7103 35.188 43.4818 39.2107 39.2994C43.3498 35.1699 44.6307 29.3822 44.6307 24.6929C44.6307 23.2459 44.5143 21.9046 44.292 20.7956H23.2363V20.7851Z" fill="#838383"/>
<path d="M168.434 39.9015C165.142 39.9015 162.792 38.4017 161.278 35.4445L181 27.3016L180.333 25.6328C179.105 22.3482 175.358 16.2648 167.704 16.2648C160.103 16.2648 153.794 22.232 153.794 30.977C153.794 39.2255 160.05 45.6892 168.434 45.6892C175.199 45.6892 179.105 41.5596 180.725 39.1727L175.696 35.8247C174.024 38.2856 171.737 39.9015 168.434 39.9015V39.9015ZM167.937 21.9574C170.509 21.9574 172.69 23.2354 173.41 25.0836L160.23 30.544C160.061 24.8513 164.634 21.9574 167.937 21.9574V21.9574Z" fill="#838383"/>
<path d="M133.575 19.56H133.352C131.902 17.8279 129.107 16.2754 125.582 16.2754C118.204 16.2754 111.45 22.739 111.45 31.051C111.45 39.2995 118.214 45.7104 125.582 45.7104C129.097 45.7104 131.891 44.1473 133.352 42.3624H133.575V44.4852C133.575 50.1145 130.557 53.1246 125.698 53.1246C121.729 53.1246 119.273 50.2835 118.267 47.886L112.625 50.2307C114.244 54.1279 118.542 58.9229 125.698 58.9229C133.299 58.9229 139.725 54.4659 139.725 43.5981V17.1626H133.575V19.56ZM126.143 39.9015C121.676 39.9015 117.928 36.1628 117.928 31.0404C117.928 25.8547 121.676 22.0631 126.143 22.0631C130.557 22.0631 134.019 25.8547 134.019 31.0404C134.019 36.1733 130.557 39.9015 126.143 39.9015Z" fill="#838383"/>
<path d="M93.9616 16.2754C85.7998 16.2754 79.1517 22.4644 79.1517 30.9876C79.1517 39.4579 85.7998 45.6998 93.9616 45.6998C102.123 45.6998 108.771 39.4579 108.771 30.9876C108.771 22.4539 102.123 16.2754 93.9616 16.2754V16.2754ZM93.9616 39.9015C89.4943 39.9015 85.641 36.2261 85.641 30.9876C85.641 25.6963 89.4943 22.0737 93.9616 22.0737C98.4289 22.0737 102.282 25.6963 102.282 30.9876C102.293 36.2261 98.4395 39.9015 93.9616 39.9015Z" fill="#AFAFAF"/>
</svg>
