<svg width="241" height="51" viewBox="0 0 241 51" fill="none" xmlns="http://www.w3.org/2000/svg">
<g clip-path="url(#clip0_187_5)">
<path d="M241 23.0727V18.8737H235.737V12.3458L235.56 12.3998L230.616 13.8983L230.519 13.9277V18.8739H222.716V16.1184C222.716 14.8354 223.005 13.8535 223.576 13.1987C224.143 12.5518 224.953 12.2229 225.987 12.2229C226.731 12.2229 227.5 12.3963 228.275 12.7384L228.469 12.8243V8.40219L228.377 8.36893C227.655 8.11163 226.672 7.98206 225.454 7.98206C223.919 7.98206 222.524 8.31304 221.308 8.96899C220.091 9.62587 219.133 10.5636 218.462 11.7559C217.794 12.9467 217.455 14.3222 217.455 15.8443V18.8737H213.79V23.0727H217.455V40.7624H222.716V23.0727H230.519V34.3142C230.519 38.944 232.723 41.2902 237.07 41.2902C237.784 41.2902 238.536 41.2073 239.304 41.0449C240.085 40.8781 240.618 40.7116 240.931 40.5338L241 40.4931V36.2553L240.786 36.3955C240.501 36.584 240.145 36.738 239.728 36.8526C239.31 36.9692 238.96 37.0277 238.689 37.0277C237.671 37.0277 236.917 36.7558 236.45 36.2193C235.977 35.6779 235.737 34.7311 235.737 33.4067V23.0727H241ZM202.041 37.0283C200.131 37.0283 198.626 36.401 197.565 35.1653C196.497 33.9234 195.956 32.1528 195.956 29.9032C195.956 27.5821 196.497 25.7656 197.565 24.5017C198.627 23.2462 200.118 22.6089 201.998 22.6089C203.822 22.6089 205.274 23.2175 206.315 24.4188C207.36 25.6263 207.891 27.4283 207.891 29.7764C207.891 32.1533 207.392 33.9791 206.408 35.2004C205.431 36.4126 203.962 37.0283 202.041 37.0283V37.0283ZM202.275 18.3464C198.632 18.3464 195.738 19.404 193.675 21.4899C191.613 23.576 190.568 26.4629 190.568 30.0711C190.568 33.4982 191.588 36.2548 193.601 38.2631C195.614 40.2721 198.353 41.2897 201.742 41.2897C205.274 41.2897 208.11 40.2173 210.172 38.1026C212.234 35.9901 213.279 33.1305 213.279 29.6066C213.279 26.1259 212.298 23.3487 210.364 21.3538C208.429 19.358 205.707 18.3464 202.275 18.3464V18.3464ZM182.085 18.3464C179.607 18.3464 177.557 18.9744 175.991 20.2126C174.415 21.4582 173.616 23.0919 173.616 25.0687C173.616 26.0963 173.789 27.0091 174.128 27.7833C174.47 28.5601 174.998 29.244 175.7 29.8179C176.397 30.3873 177.473 30.9836 178.898 31.5904C180.097 32.0789 180.99 32.4921 181.558 32.8178C182.113 33.137 182.507 33.4578 182.729 33.7703C182.945 34.0761 183.055 34.4946 183.055 35.0111C183.055 36.4816 181.943 37.1972 179.656 37.1972C178.807 37.1972 177.84 37.0216 176.78 36.6757C175.727 36.3349 174.734 35.8359 173.834 35.1961L173.616 35.0409V40.0591L173.696 40.0961C174.44 40.4365 175.379 40.7236 176.485 40.9495C177.589 41.1756 178.592 41.2907 179.464 41.2907C182.153 41.2907 184.319 40.6597 185.899 39.414C187.489 38.1599 188.295 36.4876 188.295 34.4424C188.295 32.967 187.861 31.7017 187.006 30.6813C186.157 29.6692 184.683 28.74 182.627 27.9187C180.989 27.2673 179.939 26.7266 179.506 26.3116C179.089 25.9106 178.877 25.3436 178.877 24.6255C178.877 23.9889 179.139 23.479 179.676 23.066C180.217 22.6509 180.97 22.4398 181.915 22.4398C182.791 22.4398 183.688 22.577 184.58 22.8459C185.471 23.1147 186.254 23.4748 186.908 23.9153L187.123 24.0608V19.3005L187.04 19.2654C186.437 19.0092 185.642 18.7901 184.677 18.6122C183.715 18.4355 182.843 18.3464 182.085 18.3464V18.3464ZM159.901 37.0283C157.992 37.0283 156.486 36.401 155.425 35.1653C154.357 33.9234 153.817 32.1533 153.817 29.9032C153.817 27.5821 154.358 25.7656 155.426 24.5017C156.487 23.2462 157.978 22.6089 159.859 22.6089C161.682 22.6089 163.134 23.2175 164.175 24.4188C165.22 25.6263 165.751 27.4283 165.751 29.7764C165.751 32.1533 165.252 33.9791 164.268 35.2004C163.291 36.4126 161.822 37.0283 159.901 37.0283V37.0283ZM160.135 18.3464C156.491 18.3464 153.597 19.404 151.535 21.4899C149.473 23.576 148.427 26.4629 148.427 30.0711C148.427 33.4996 149.449 36.2548 151.461 38.2631C153.474 40.2721 156.213 41.2897 159.602 41.2897C163.133 41.2897 165.97 40.2173 168.032 38.1026C170.094 35.9901 171.139 33.1305 171.139 29.6066C171.139 26.1259 170.159 23.3487 168.224 21.3538C166.288 19.358 163.567 18.3464 160.135 18.3464V18.3464ZM140.441 22.6643V18.8737H135.244V40.762H140.441V29.5653C140.441 27.6614 140.877 26.0972 141.737 24.9158C142.586 23.7485 143.717 23.157 145.098 23.157C145.566 23.157 146.091 23.2334 146.66 23.3847C147.224 23.5351 147.632 23.6984 147.872 23.8702L148.091 24.0271V18.8362L148.007 18.8004C147.523 18.5967 146.838 18.4939 145.972 18.4939C144.666 18.4939 143.497 18.9097 142.496 19.7283C141.617 20.4477 140.982 21.4342 140.496 22.6643H140.441ZM125.937 18.3464C123.553 18.3464 121.426 18.8529 119.618 19.8514C117.805 20.8521 116.403 22.2809 115.449 24.0977C114.5 25.9102 114.018 28.0272 114.018 30.3882C114.018 32.4563 114.485 34.3542 115.409 36.0269C116.333 37.7023 117.642 39.0131 119.298 39.9222C120.952 40.8301 122.863 41.2904 124.98 41.2904C127.449 41.2904 129.558 40.8012 131.249 39.8365L131.317 39.7977V35.0806L131.099 35.2386C130.333 35.7913 129.477 36.2324 128.556 36.5502C127.638 36.8678 126.8 37.0283 126.066 37.0283C124.027 37.0283 122.39 36.3962 121.201 35.1499C120.01 33.9019 119.407 32.1496 119.407 29.9445C119.407 27.7256 120.036 25.9282 121.277 24.6019C122.514 23.2796 124.155 22.6089 126.152 22.6089C127.86 22.6089 129.524 23.1819 131.099 24.3137L131.317 24.4705V19.5003L131.247 19.461C130.654 19.1323 129.846 18.861 128.842 18.6552C127.843 18.4498 126.866 18.3464 125.937 18.3464V18.3464ZM110.438 18.8739H105.241V40.762H110.438V18.8739V18.8739ZM107.893 9.54942C107.038 9.54942 106.292 9.8379 105.679 10.4095C105.063 10.9828 104.751 11.7046 104.751 12.5564C104.751 13.3948 105.06 14.1034 105.669 14.6615C106.275 15.2179 107.023 15.4999 107.893 15.4999C108.763 15.4999 109.514 15.2179 110.127 14.6624C110.744 14.1034 111.057 13.3951 111.057 12.5564C111.057 11.7344 110.752 11.02 110.153 10.4326C109.553 9.84644 108.793 9.54942 107.893 9.54942ZM94.9262 17.259V40.762H100.23V10.2195H92.8894L83.5589 32.9055L74.5043 10.2195H66.8647V40.7617H71.8489V17.2566H72.02L81.5815 40.762H85.3429L94.7551 17.259H94.9262V17.259Z" fill="#706D6E"/>
<path d="M24.4482 24.235H0V0.0136719H24.4482V24.235Z" fill="#A7A7A7" fill-opacity="0.4"/>
<path d="M51.4416 24.2344H26.9939V0.0130615H51.4416V24.2344Z" fill="#A7A7A7" fill-opacity="0.24"/>
<path d="M24.4475 50.9869H0V26.7657H24.4475V50.9869Z" fill="#A7A7A7" fill-opacity="0.26"/>
<path d="M51.4416 50.9869H26.9939V26.7657H51.4416V50.9869Z" fill="#A7A7A7" fill-opacity="0.39"/>
</g>
<defs>
<clipPath id="clip0_187_5">
<rect width="241" height="51" fill="white"/>
</clipPath>
</defs>
</svg>
