<svg width="208" height="54" viewBox="0 0 208 54" fill="none" xmlns="http://www.w3.org/2000/svg">
<g clip-path="url(#clip0_184_184)">
<path d="M8.60881 15.3634C9.23862 16.3286 9.51637 17.1889 9.86802 19.0048C12.3308 16.6191 15.3678 15.3634 18.6825 15.3634C21.676 15.3634 24.1331 16.3286 26.0339 18.2975C26.5464 18.7912 27.0401 19.4279 27.4661 20.0529C30.7743 16.69 33.7374 15.3634 37.7063 15.3634C40.5333 15.3634 43.2125 16.2024 44.8481 17.5992C46.8911 19.3513 47.5391 21.4582 47.5391 26.3625V51.8795H38.3547V28.1904C38.3547 23.8962 37.8423 23.0661 35.3795 23.0661C33.6139 23.0661 31.1329 24.2609 29.0956 26.0832V51.8787H20.133V28.5273C20.133 24.0502 19.4792 22.9984 16.8495 22.9984C15.1026 22.9984 12.6829 23.897 10.646 25.7282V51.8791H1.39952V26.8489C1.39952 21.6665 1.04137 19.4279 0.0477295 17.6669L8.60881 15.3634ZM64.3352 25.8692C63.6867 27.7681 63.3416 30.2888 63.3416 33.8665C63.3416 37.9918 63.7671 41.092 64.5387 42.9078C65.3902 44.8712 67.5204 45.8512 69.3404 45.8512C73.4396 45.8512 75.1926 42.2099 75.1926 33.7286C75.1926 28.8888 74.5567 25.7282 73.2914 24.1114C72.3834 22.929 70.9086 22.2246 69.2052 22.2246C66.9397 22.2246 65.1003 23.621 64.3352 25.8688V25.8692ZM81.3522 20.6868C84.2414 24.0497 85.5314 27.9732 85.5314 33.7899C85.5314 39.9584 84.1057 44.1724 80.9884 47.6707C78.2478 50.7519 74.6367 52.6512 69.0691 52.6512C59.2363 52.6512 52.8233 45.358 52.8233 34.0776C52.8233 22.7872 59.3041 15.2836 69.0691 15.2836C74.2233 15.2836 78.2478 17.0422 81.3526 20.6868H81.3522ZM115.974 15.9884V22.4382L100 45.358H116.598L114.332 51.8791H87.7173V46.0628L104.723 22.5801H89.1365V15.9884H115.975H115.974ZM130.869 15.143V51.8791H121.407V16.6191L130.869 15.143ZM131.98 6.10724C131.98 9.33636 129.393 11.9147 126.123 11.9147C122.956 11.9147 120.351 9.33636 120.351 6.10764C120.351 2.88537 123.043 0.284507 126.282 0.284507C129.456 0.284507 131.98 2.88537 131.98 6.10764V6.10724ZM148.103 9.33636V37.2999C148.103 43.4777 148.177 44.3078 148.745 45.2879C149.103 45.9246 149.868 46.2683 150.659 46.2683C150.998 46.2683 151.202 46.2683 151.714 46.1394L153.331 51.7409C151.714 52.3687 149.732 52.7189 147.684 52.7189C143.646 52.7189 140.4 50.8313 139.276 47.8234C138.566 45.9983 138.412 44.8712 138.412 39.7565V12.9681C138.412 8.2757 138.289 5.40887 137.936 2.17169L147.616 0C147.955 1.96052 148.103 4.27567 148.103 9.33636V9.33636ZM167.731 9.33636V37.2999C167.731 43.4777 167.812 44.3078 168.392 45.2879C168.725 45.9246 169.49 46.2683 170.281 46.2683C170.639 46.2683 170.855 46.2683 171.355 46.1394L172.966 51.7409C171.355 52.3687 169.373 52.7189 167.318 52.7189C163.288 52.7189 160.035 50.8313 158.905 47.8234C158.183 45.9983 158.065 44.8712 158.065 39.7565V12.9681C158.065 8.2757 157.924 5.40887 157.559 2.17169L167.225 0C167.614 1.96052 167.731 4.27567 167.731 9.33636H167.731ZM194.848 36.1792C188.305 36.1792 186.009 37.3611 186.009 41.6554C186.009 44.448 187.799 46.3413 190.199 46.3413C191.959 46.3413 193.737 45.4285 195.138 43.8911L195.293 36.1788H194.848V36.1792ZM182.582 17.3235C186.101 15.847 189.126 15.2224 192.459 15.2224C198.546 15.2224 202.706 17.4589 204.131 21.4582C204.6 22.929 204.816 24.0497 204.773 27.9083L204.544 39.9584V40.5951C204.544 44.4485 205.187 45.9246 207.953 47.9528L202.928 53.7107C200.718 52.7919 198.749 51.1747 197.829 49.3584C197.132 50.0657 196.348 50.7519 195.631 51.248C193.879 52.5106 191.317 53.2146 188.354 53.2146C180.299 53.2146 175.923 49.1404 175.923 42.0043C175.923 33.5787 181.799 29.6488 193.305 29.6488C193.996 29.6488 194.65 29.6488 195.434 29.7282V28.2646C195.434 24.2613 194.65 22.929 191.169 22.929C188.169 22.929 184.607 24.3927 180.731 26.9927L176.7 20.2613C178.62 19.066 180.034 18.3713 182.582 17.3235V17.3235Z" fill="#A7A7A7"/>
</g>
<defs>
<clipPath id="clip0_184_184">
<rect width="208" height="54" fill="white"/>
</clipPath>
</defs>
</svg>
