<svg width="169" height="40" viewBox="0 0 169 40" fill="none" xmlns="http://www.w3.org/2000/svg">
<path fill-rule="evenodd" clip-rule="evenodd" d="M135.141 12.7051C135.757 13.7748 135.959 14.9919 136.025 16.3601L136.113 18.1837V30.9359L136.202 32.7615C136.381 35.7429 138.566 37.9474 141.551 38.1349L143.356 38.2248V18.1837L143.445 16.3601C143.519 15.0072 143.719 13.7672 144.345 12.6898C144.982 11.5848 145.897 10.668 146.998 10.0314C148.099 9.39487 149.347 9.061 150.617 9.06333C151.887 9.06565 153.133 9.40409 154.232 10.0447C155.331 10.6852 156.242 11.6054 156.876 12.7128C157.492 13.7825 157.684 15.0225 157.758 16.3601L157.848 18.178V30.9359L157.937 32.7615C158.123 35.7582 160.291 37.9627 163.286 38.1349L165.091 38.2248V16.3601C165.091 12.4938 163.565 8.78578 160.849 6.05137C158.133 3.31695 154.448 1.78001 150.606 1.77849C148.55 1.77631 146.517 2.21576 144.643 3.06748C142.769 3.9192 141.097 5.16358 139.739 6.71748C138.38 5.16419 136.708 3.92011 134.834 3.06814C132.96 2.21616 130.928 1.77586 128.871 1.77658C125.863 1.77658 123.072 2.6951 120.759 4.28147C119.348 2.69702 116.192 1.77658 114.379 1.77658V38.2248L116.192 38.1349C119.223 37.934 121.413 35.7888 121.531 32.7615L121.628 30.9359V18.1837L121.718 16.3601C121.794 14.9842 121.984 13.7748 122.602 12.6975C123.24 11.5931 124.155 10.6765 125.255 10.0392C126.355 9.40187 127.602 9.06612 128.871 9.06546C130.142 9.06574 131.39 9.40216 132.49 10.041C133.591 10.6798 134.505 11.5986 135.141 12.7051V12.7051ZM11.1523 38.1368L12.9645 38.2248H40.1285L40.0392 36.4069C39.7939 33.4102 37.685 31.2211 34.6976 31.0259L32.8854 30.9359H16.5889L38.3163 9.06355L38.227 7.24755C38.0862 4.22024 35.888 2.033 32.8854 1.86652L31.0732 1.78423L3.90918 1.77658L3.99855 3.60023C4.23625 6.56822 6.37553 8.8033 9.33818 8.97552L11.1523 9.06546H27.4488L5.72138 30.9379L5.81076 32.7615C5.98951 35.7659 8.14399 37.9416 11.1523 38.1349V38.1368ZM107.269 7.11168C108.951 8.80391 110.286 10.813 111.196 13.0242C112.106 15.2354 112.575 17.6054 112.575 19.9988C112.575 22.3922 112.106 24.7622 111.196 26.9734C110.286 29.1846 108.951 31.1937 107.269 32.8859C103.871 36.3027 99.2641 38.222 94.4604 38.222C89.6567 38.222 85.0495 36.3027 81.6514 32.8859C74.5794 25.7692 74.5794 14.2283 81.6514 7.11168C83.3318 5.42002 85.3269 4.07801 87.5227 3.16228C89.7185 2.24655 92.0721 1.77504 94.449 1.77466C96.8298 1.773 99.1875 2.24368 101.387 3.15979C103.587 4.07589 105.586 5.41944 107.269 7.11359V7.11168ZM102.145 12.2726C104.182 14.3241 105.326 17.1054 105.326 20.0055C105.326 22.9055 104.182 25.6869 102.145 27.7383C100.106 29.7882 97.3422 30.9397 94.4604 30.9397C91.5786 30.9397 88.8147 29.7882 86.7761 27.7383C84.7392 25.6869 83.5949 22.9055 83.5949 20.0055C83.5949 17.1054 84.7392 14.3241 86.7761 12.2726C88.8147 10.2228 91.5786 9.07131 94.4604 9.07131C97.3422 9.07131 100.106 10.2228 102.145 12.2726ZM56.4403 1.77466C58.8173 1.77529 61.171 2.2471 63.3668 3.16316C65.5626 4.07922 67.5576 5.42158 69.2379 7.11359C76.3118 14.2283 76.3118 25.7711 69.2379 32.8859C65.8398 36.3027 61.2326 38.222 56.4289 38.222C51.6251 38.222 47.0179 36.3027 43.6198 32.8859C36.5479 25.7692 36.5479 14.2283 43.6198 7.11168C45.3003 5.42002 47.2953 4.07801 49.4912 3.16228C51.687 2.24655 54.0405 1.77504 56.4175 1.77466H56.4403V1.77466ZM64.1131 12.2688C66.1507 14.3203 67.2953 17.1021 67.2953 20.0026C67.2953 22.9031 66.1507 25.6849 64.1131 27.7364C62.0746 29.7863 59.3107 30.9377 56.4289 30.9377C53.547 30.9377 50.7831 29.7863 48.7446 27.7364C46.7076 25.685 45.5634 22.9036 45.5634 20.0036C45.5634 17.1035 46.7076 14.3221 48.7446 12.2707C50.7831 10.2209 53.547 9.0694 56.4289 9.0694C59.3107 9.0694 62.0746 10.2209 64.1131 12.2707V12.2688Z" fill="#7C7C7C"/>
</svg>
