<svg width="1920" height="1080" viewBox="0 0 1920 1080" fill="none" xmlns="http://www.w3.org/2000/svg">
<rect width="1920" height="1080" fill="#F7F7F7"/>
<mask id="mask0_195_555" style="mask-type:alpha" maskUnits="userSpaceOnUse" x="86" y="278" width="154" height="154">
<rect x="86" y="278" width="14" height="14" fill="#C4C4C4"/>
<rect x="86" y="306" width="14" height="14" fill="#C4C4C4"/>
<rect x="86" y="334" width="14" height="14" fill="#C4C4C4"/>
<rect x="86" y="362" width="14" height="14" fill="#C4C4C4"/>
<rect x="86" y="390" width="14" height="14" fill="#C4C4C4"/>
<rect x="86" y="418" width="14" height="14" fill="#C4C4C4"/>
<rect x="100" y="292" width="14" height="14" fill="#C4C4C4"/>
<rect x="100" y="320" width="14" height="14" fill="#C4C4C4"/>
<rect x="100" y="348" width="14" height="14" fill="#C4C4C4"/>
<rect x="100" y="376" width="14" height="14" fill="#C4C4C4"/>
<rect x="100" y="404" width="14" height="14" fill="#C4C4C4"/>
<rect x="128" y="292" width="14" height="14" fill="#C4C4C4"/>
<rect x="128" y="320" width="14" height="14" fill="#C4C4C4"/>
<rect x="128" y="348" width="14" height="14" fill="#C4C4C4"/>
<rect x="128" y="376" width="14" height="14" fill="#C4C4C4"/>
<rect x="128" y="404" width="14" height="14" fill="#C4C4C4"/>
<rect x="156" y="292" width="14" height="14" fill="#C4C4C4"/>
<rect x="156" y="320" width="14" height="14" fill="#C4C4C4"/>
<rect x="156" y="348" width="14" height="14" fill="#C4C4C4"/>
<rect x="156" y="376" width="14" height="14" fill="#C4C4C4"/>
<rect x="156" y="404" width="14" height="14" fill="#C4C4C4"/>
<rect x="184" y="292" width="14" height="14" fill="#C4C4C4"/>
<rect x="184" y="320" width="14" height="14" fill="#C4C4C4"/>
<rect x="184" y="348" width="14" height="14" fill="#C4C4C4"/>
<rect x="184" y="376" width="14" height="14" fill="#C4C4C4"/>
<rect x="184" y="404" width="14" height="14" fill="#C4C4C4"/>
<rect x="212" y="292" width="14" height="14" fill="#C4C4C4"/>
<rect x="212" y="320" width="14" height="14" fill="#C4C4C4"/>
<rect x="212" y="348" width="14" height="14" fill="#C4C4C4"/>
<rect x="212" y="376" width="14" height="14" fill="#C4C4C4"/>
<rect x="212" y="404" width="14" height="14" fill="#C4C4C4"/>
<rect x="114" y="278" width="14" height="14" fill="#C4C4C4"/>
<rect x="114" y="306" width="14" height="14" fill="#C4C4C4"/>
<rect x="114" y="334" width="14" height="14" fill="#C4C4C4"/>
<rect x="114" y="362" width="14" height="14" fill="#C4C4C4"/>
<rect x="114" y="390" width="14" height="14" fill="#C4C4C4"/>
<rect x="114" y="418" width="14" height="14" fill="#C4C4C4"/>
<rect x="142" y="278" width="14" height="14" fill="#C4C4C4"/>
<rect x="142" y="306" width="14" height="14" fill="#C4C4C4"/>
<rect x="142" y="334" width="14" height="14" fill="#C4C4C4"/>
<rect x="142" y="362" width="14" height="14" fill="#C4C4C4"/>
<rect x="142" y="390" width="14" height="14" fill="#C4C4C4"/>
<rect x="142" y="418" width="14" height="14" fill="#C4C4C4"/>
<rect x="170" y="278" width="14" height="14" fill="#C4C4C4"/>
<rect x="170" y="306" width="14" height="14" fill="#C4C4C4"/>
<rect x="170" y="334" width="14" height="14" fill="#C4C4C4"/>
<rect x="170" y="362" width="14" height="14" fill="#C4C4C4"/>
<rect x="170" y="390" width="14" height="14" fill="#C4C4C4"/>
<rect x="170" y="418" width="14" height="14" fill="#C4C4C4"/>
<rect x="198" y="278" width="14" height="14" fill="#C4C4C4"/>
<rect x="198" y="306" width="14" height="14" fill="#C4C4C4"/>
<rect x="198" y="334" width="14" height="14" fill="#C4C4C4"/>
<rect x="198" y="362" width="14" height="14" fill="#C4C4C4"/>
<rect x="198" y="390" width="14" height="14" fill="#C4C4C4"/>
<rect x="198" y="418" width="14" height="14" fill="#C4C4C4"/>
<rect x="226" y="278" width="14" height="14" fill="#C4C4C4"/>
<rect x="226" y="306" width="14" height="14" fill="#C4C4C4"/>
<rect x="226" y="334" width="14" height="14" fill="#C4C4C4"/>
<rect x="226" y="362" width="14" height="14" fill="#C4C4C4"/>
<rect x="226" y="390" width="14" height="14" fill="#C4C4C4"/>
<rect x="226" y="418" width="14" height="14" fill="#C4C4C4"/>
</mask>
<g mask="url(#mask0_195_555)">
<circle cx="159.85" cy="358.15" r="66.15" fill="#C4C4C4"/>
</g>
<mask id="mask1_195_555" style="mask-type:alpha" maskUnits="userSpaceOnUse" x="1553" y="622" width="187" height="187">
<rect x="1553" y="622" width="17" height="17" fill="#C4C4C4"/>
<rect x="1553" y="656" width="17" height="17" fill="#C4C4C4"/>
<rect x="1553" y="690" width="17" height="17" fill="#C4C4C4"/>
<rect x="1553" y="724" width="17" height="17" fill="#C4C4C4"/>
<rect x="1553" y="758" width="17" height="17" fill="#C4C4C4"/>
<rect x="1553" y="792" width="17" height="17" fill="#C4C4C4"/>
<rect x="1570" y="639" width="17" height="17" fill="#C4C4C4"/>
<rect x="1570" y="673" width="17" height="17" fill="#C4C4C4"/>
<rect x="1570" y="707" width="17" height="17" fill="#C4C4C4"/>
<rect x="1570" y="741" width="17" height="17" fill="#C4C4C4"/>
<rect x="1570" y="775" width="17" height="17" fill="#C4C4C4"/>
<rect x="1604" y="639" width="17" height="17" fill="#C4C4C4"/>
<rect x="1604" y="673" width="17" height="17" fill="#C4C4C4"/>
<rect x="1604" y="707" width="17" height="17" fill="#C4C4C4"/>
<rect x="1604" y="741" width="17" height="17" fill="#C4C4C4"/>
<rect x="1604" y="775" width="17" height="17" fill="#C4C4C4"/>
<rect x="1638" y="639" width="17" height="17" fill="#C4C4C4"/>
<rect x="1638" y="673" width="17" height="17" fill="#C4C4C4"/>
<rect x="1638" y="707" width="17" height="17" fill="#C4C4C4"/>
<rect x="1638" y="741" width="17" height="17" fill="#C4C4C4"/>
<rect x="1638" y="775" width="17" height="17" fill="#C4C4C4"/>
<rect x="1672" y="639" width="17" height="17" fill="#C4C4C4"/>
<rect x="1672" y="673" width="17" height="17" fill="#C4C4C4"/>
<rect x="1672" y="707" width="17" height="17" fill="#C4C4C4"/>
<rect x="1672" y="741" width="17" height="17" fill="#C4C4C4"/>
<rect x="1672" y="775" width="17" height="17" fill="#C4C4C4"/>
<rect x="1706" y="639" width="17" height="17" fill="#C4C4C4"/>
<rect x="1706" y="673" width="17" height="17" fill="#C4C4C4"/>
<rect x="1706" y="707" width="17" height="17" fill="#C4C4C4"/>
<rect x="1706" y="741" width="17" height="17" fill="#C4C4C4"/>
<rect x="1706" y="775" width="17" height="17" fill="#C4C4C4"/>
<rect x="1587" y="622" width="17" height="17" fill="#C4C4C4"/>
<rect x="1587" y="656" width="17" height="17" fill="#C4C4C4"/>
<rect x="1587" y="690" width="17" height="17" fill="#C4C4C4"/>
<rect x="1587" y="724" width="17" height="17" fill="#C4C4C4"/>
<rect x="1587" y="758" width="17" height="17" fill="#C4C4C4"/>
<rect x="1587" y="792" width="17" height="17" fill="#C4C4C4"/>
<rect x="1621" y="622" width="17" height="17" fill="#C4C4C4"/>
<rect x="1621" y="656" width="17" height="17" fill="#C4C4C4"/>
<rect x="1621" y="690" width="17" height="17" fill="#C4C4C4"/>
<rect x="1621" y="724" width="17" height="17" fill="#C4C4C4"/>
<rect x="1621" y="758" width="17" height="17" fill="#C4C4C4"/>
<rect x="1621" y="792" width="17" height="17" fill="#C4C4C4"/>
<rect x="1655" y="622" width="17" height="17" fill="#C4C4C4"/>
<rect x="1655" y="656" width="17" height="17" fill="#C4C4C4"/>
<rect x="1655" y="690" width="17" height="17" fill="#C4C4C4"/>
<rect x="1655" y="724" width="17" height="17" fill="#C4C4C4"/>
<rect x="1655" y="758" width="17" height="17" fill="#C4C4C4"/>
<rect x="1655" y="792" width="17" height="17" fill="#C4C4C4"/>
<rect x="1689" y="622" width="17" height="17" fill="#C4C4C4"/>
<rect x="1689" y="656" width="17" height="17" fill="#C4C4C4"/>
<rect x="1689" y="690" width="17" height="17" fill="#C4C4C4"/>
<rect x="1689" y="724" width="17" height="17" fill="#C4C4C4"/>
<rect x="1689" y="758" width="17" height="17" fill="#C4C4C4"/>
<rect x="1689" y="792" width="17" height="17" fill="#C4C4C4"/>
<rect x="1723" y="622" width="17" height="17" fill="#C4C4C4"/>
<rect x="1723" y="656" width="17" height="17" fill="#C4C4C4"/>
<rect x="1723" y="690" width="17" height="17" fill="#C4C4C4"/>
<rect x="1723" y="724" width="17" height="17" fill="#C4C4C4"/>
<rect x="1723" y="758" width="17" height="17" fill="#C4C4C4"/>
<rect x="1723" y="792" width="17" height="17" fill="#C4C4C4"/>
</mask>
<g mask="url(#mask1_195_555)">
<circle cx="1642.68" cy="719.325" r="80.325" fill="#C4C4C4"/>
</g>
<circle cx="201" cy="726" r="10" fill="#C4C4C4"/>
<circle cx="201" cy="755" r="10" fill="#C4C4C4"/>
<circle cx="201" cy="783" r="10" fill="#C4C4C4"/>
<circle cx="201" cy="810" r="10" fill="#C4C4C4"/>
<circle cx="201" cy="839" r="10" fill="#C4C4C4"/>
<circle cx="201" cy="868" r="10" fill="#C4C4C4"/>
<circle cx="229" cy="726" r="10" fill="#C4C4C4"/>
<circle cx="229" cy="755" r="10" fill="#C4C4C4"/>
<circle cx="229" cy="783" r="10" fill="#C4C4C4"/>
<circle cx="229" cy="810" r="10" fill="#C4C4C4"/>
<circle cx="229" cy="839" r="10" fill="#C4C4C4"/>
<circle cx="229" cy="868" r="10" fill="#C4C4C4"/>
<circle cx="215" cy="741" r="10" fill="#EC5242"/>
<circle cx="215" cy="769" r="10" fill="#EC5242"/>
<circle cx="215" cy="796" r="10" fill="#EC5242"/>
<circle cx="215" cy="825" r="10" fill="#EC5242"/>
<circle cx="215" cy="854" r="10" fill="#EC5242"/>
<circle cx="257" cy="726" r="10" fill="#C4C4C4"/>
<circle cx="257" cy="755" r="10" fill="#C4C4C4"/>
<circle cx="257" cy="783" r="10" fill="#C4C4C4"/>
<circle cx="257" cy="810" r="10" fill="#C4C4C4"/>
<circle cx="257" cy="839" r="10" fill="#C4C4C4"/>
<circle cx="257" cy="868" r="10" fill="#C4C4C4"/>
<circle cx="243" cy="741" r="10" fill="#EC5242"/>
<circle cx="243" cy="769" r="10" fill="#EC5242"/>
<circle cx="243" cy="796" r="10" fill="#EC5242"/>
<circle cx="243" cy="825" r="10" fill="#EC5242"/>
<circle cx="243" cy="854" r="10" fill="#EC5242"/>
<circle cx="285" cy="726" r="10" fill="#C4C4C4"/>
<circle cx="285" cy="755" r="10" fill="#C4C4C4"/>
<circle cx="285" cy="783" r="10" fill="#C4C4C4"/>
<circle cx="285" cy="810" r="10" fill="#C4C4C4"/>
<circle cx="285" cy="839" r="10" fill="#C4C4C4"/>
<circle cx="285" cy="868" r="10" fill="#C4C4C4"/>
<circle cx="271" cy="741" r="10" fill="#EC5242"/>
<circle cx="271" cy="769" r="10" fill="#EC5242"/>
<circle cx="271" cy="796" r="10" fill="#EC5242"/>
<circle cx="271" cy="825" r="10" fill="#EC5242"/>
<circle cx="271" cy="854" r="10" fill="#EC5242"/>
<circle cx="313" cy="726" r="10" fill="#C4C4C4"/>
<circle cx="313" cy="755" r="10" fill="#C4C4C4"/>
<circle cx="313" cy="783" r="10" fill="#C4C4C4"/>
<circle cx="313" cy="810" r="10" fill="#C4C4C4"/>
<circle cx="313" cy="839" r="10" fill="#C4C4C4"/>
<circle cx="313" cy="868" r="10" fill="#C4C4C4"/>
<circle cx="299" cy="741" r="10" fill="#EC5242"/>
<circle cx="299" cy="769" r="10" fill="#EC5242"/>
<circle cx="299" cy="796" r="10" fill="#EC5242"/>
<circle cx="299" cy="825" r="10" fill="#EC5242"/>
<circle cx="299" cy="854" r="10" fill="#EC5242"/>
<circle cx="341" cy="726" r="10" fill="#C4C4C4"/>
<circle cx="341" cy="755" r="10" fill="#C4C4C4"/>
<circle cx="341" cy="783" r="10" fill="#C4C4C4"/>
<circle cx="341" cy="810" r="10" fill="#C4C4C4"/>
<circle cx="341" cy="839" r="10" fill="#C4C4C4"/>
<circle cx="341" cy="868" r="10" fill="#C4C4C4"/>
<circle cx="327" cy="741" r="10" fill="#EC5242"/>
<circle cx="327" cy="769" r="10" fill="#EC5242"/>
<circle cx="327" cy="796" r="10" fill="#EC5242"/>
<circle cx="327" cy="825" r="10" fill="#EC5242"/>
<circle cx="327" cy="854" r="10" fill="#EC5242"/>
<circle cx="369" cy="726" r="10" fill="#C4C4C4"/>
<circle cx="369" cy="755" r="10" fill="#C4C4C4"/>
<circle cx="369" cy="783" r="10" fill="#C4C4C4"/>
<circle cx="369" cy="810" r="10" fill="#C4C4C4"/>
<circle cx="369" cy="839" r="10" fill="#C4C4C4"/>
<circle cx="369" cy="868" r="10" fill="#C4C4C4"/>
<circle cx="355" cy="741" r="10" fill="#EC5242"/>
<circle cx="355" cy="769" r="10" fill="#EC5242"/>
<circle cx="355" cy="796" r="10" fill="#EC5242"/>
<circle cx="355" cy="825" r="10" fill="#EC5242"/>
<circle cx="355" cy="854" r="10" fill="#EC5242"/>
<mask id="mask2_195_555" style="mask-type:alpha" maskUnits="userSpaceOnUse" x="1671" y="286" width="138" height="138">
<circle cx="1740" cy="355" r="69" fill="#C4C4C4"/>
</mask>
<g mask="url(#mask2_195_555)">
<circle cx="1668.6" cy="288.828" r="9.03437" fill="#C4C4C4"/>
<circle cx="1668.6" cy="315.028" r="9.03437" fill="#C4C4C4"/>
<circle cx="1668.6" cy="340.324" r="9.03437" fill="#C4C4C4"/>
<circle cx="1668.6" cy="364.717" r="9.03437" fill="#C4C4C4"/>
<circle cx="1668.6" cy="390.916" r="9.03437" fill="#C4C4C4"/>
<circle cx="1668.6" cy="417.116" r="9.03437" fill="#C4C4C4"/>
<circle cx="1693.9" cy="288.828" r="9.03437" fill="#C4C4C4"/>
<circle cx="1693.9" cy="315.028" r="9.03437" fill="#C4C4C4"/>
<circle cx="1693.9" cy="340.324" r="9.03437" fill="#C4C4C4"/>
<circle cx="1693.9" cy="364.717" r="9.03437" fill="#C4C4C4"/>
<circle cx="1693.9" cy="390.916" r="9.03437" fill="#C4C4C4"/>
<circle cx="1693.9" cy="417.116" r="9.03437" fill="#C4C4C4"/>
<circle cx="1681.25" cy="302.379" r="9.03437" fill="#EC5242"/>
<circle cx="1681.25" cy="327.676" r="9.03437" fill="#EC5242"/>
<circle cx="1681.25" cy="352.068" r="9.03437" fill="#EC5242"/>
<circle cx="1681.25" cy="378.268" r="9.03437" fill="#EC5242"/>
<circle cx="1681.25" cy="404.468" r="9.03437" fill="#EC5242"/>
<circle cx="1719.2" cy="288.828" r="9.03437" fill="#C4C4C4"/>
<circle cx="1719.2" cy="315.028" r="9.03437" fill="#C4C4C4"/>
<circle cx="1719.2" cy="340.324" r="9.03437" fill="#C4C4C4"/>
<circle cx="1719.2" cy="364.717" r="9.03437" fill="#C4C4C4"/>
<circle cx="1719.2" cy="390.916" r="9.03437" fill="#C4C4C4"/>
<circle cx="1719.2" cy="417.116" r="9.03437" fill="#C4C4C4"/>
<circle cx="1706.55" cy="302.379" r="9.03437" fill="#EC5242"/>
<circle cx="1706.55" cy="327.676" r="9.03437" fill="#EC5242"/>
<circle cx="1706.55" cy="352.068" r="9.03437" fill="#EC5242"/>
<circle cx="1706.55" cy="378.268" r="9.03437" fill="#EC5242"/>
<circle cx="1706.55" cy="404.468" r="9.03437" fill="#EC5242"/>
<circle cx="1744.49" cy="288.828" r="9.03437" fill="#C4C4C4"/>
<circle cx="1744.49" cy="315.028" r="9.03437" fill="#C4C4C4"/>
<circle cx="1744.49" cy="340.324" r="9.03437" fill="#C4C4C4"/>
<circle cx="1744.49" cy="364.717" r="9.03437" fill="#C4C4C4"/>
<circle cx="1744.49" cy="390.916" r="9.03437" fill="#C4C4C4"/>
<circle cx="1744.49" cy="417.116" r="9.03437" fill="#C4C4C4"/>
<circle cx="1731.84" cy="302.379" r="9.03437" fill="#EC5242"/>
<circle cx="1731.84" cy="327.676" r="9.03437" fill="#EC5242"/>
<circle cx="1731.84" cy="352.068" r="9.03437" fill="#EC5242"/>
<circle cx="1731.84" cy="378.268" r="9.03437" fill="#EC5242"/>
<circle cx="1731.84" cy="404.468" r="9.03437" fill="#EC5242"/>
<circle cx="1769.79" cy="288.828" r="9.03437" fill="#C4C4C4"/>
<circle cx="1769.79" cy="315.028" r="9.03437" fill="#C4C4C4"/>
<circle cx="1769.79" cy="340.324" r="9.03437" fill="#C4C4C4"/>
<circle cx="1769.79" cy="364.717" r="9.03437" fill="#C4C4C4"/>
<circle cx="1769.79" cy="390.916" r="9.03437" fill="#C4C4C4"/>
<circle cx="1769.79" cy="417.116" r="9.03437" fill="#C4C4C4"/>
<circle cx="1757.14" cy="302.379" r="9.03437" fill="#EC5242"/>
<circle cx="1757.14" cy="327.676" r="9.03437" fill="#EC5242"/>
<circle cx="1757.14" cy="352.068" r="9.03437" fill="#EC5242"/>
<circle cx="1757.14" cy="378.268" r="9.03437" fill="#EC5242"/>
<circle cx="1757.14" cy="404.468" r="9.03437" fill="#EC5242"/>
<circle cx="1795.08" cy="288.828" r="9.03437" fill="#C4C4C4"/>
<circle cx="1795.08" cy="315.028" r="9.03437" fill="#C4C4C4"/>
<circle cx="1795.08" cy="340.324" r="9.03437" fill="#C4C4C4"/>
<circle cx="1795.08" cy="364.717" r="9.03437" fill="#C4C4C4"/>
<circle cx="1795.08" cy="390.916" r="9.03437" fill="#C4C4C4"/>
<circle cx="1795.08" cy="417.116" r="9.03437" fill="#C4C4C4"/>
<circle cx="1782.44" cy="302.379" r="9.03437" fill="#EC5242"/>
<circle cx="1782.44" cy="327.676" r="9.03437" fill="#EC5242"/>
<circle cx="1782.44" cy="352.068" r="9.03437" fill="#EC5242"/>
<circle cx="1782.44" cy="378.268" r="9.03437" fill="#EC5242"/>
<circle cx="1782.44" cy="404.468" r="9.03437" fill="#EC5242"/>
<circle cx="1807.73" cy="302.379" r="9.03437" fill="#EC5242"/>
<circle cx="1807.73" cy="327.676" r="9.03437" fill="#EC5242"/>
<circle cx="1807.73" cy="352.068" r="9.03437" fill="#EC5242"/>
<circle cx="1807.73" cy="378.268" r="9.03437" fill="#EC5242"/>
<circle cx="1807.73" cy="404.468" r="9.03437" fill="#EC5242"/>
</g>
</svg>
