<svg width="694" height="864" viewBox="0 0 694 864" fill="none" xmlns="http://www.w3.org/2000/svg">
<mask id="mask0_203_982" style="mask-type:alpha" maskUnits="userSpaceOnUse" x="15" y="290" width="88" height="88">
<rect x="15" y="290" width="8" height="8" fill="#C4C4C4"/>
<rect x="15" y="306" width="8" height="8" fill="#C4C4C4"/>
<rect x="15" y="322" width="8" height="8" fill="#C4C4C4"/>
<rect x="15" y="338" width="8" height="8" fill="#C4C4C4"/>
<rect x="15" y="354" width="8" height="8" fill="#C4C4C4"/>
<rect x="15" y="370" width="8" height="8" fill="#C4C4C4"/>
<rect x="23" y="298" width="8" height="8" fill="#C4C4C4"/>
<rect x="23" y="314" width="8" height="8" fill="#C4C4C4"/>
<rect x="23" y="330" width="8" height="8" fill="#C4C4C4"/>
<rect x="23" y="346" width="8" height="8" fill="#C4C4C4"/>
<rect x="23" y="362" width="8" height="8" fill="#C4C4C4"/>
<rect x="39" y="298" width="8" height="8" fill="#C4C4C4"/>
<rect x="39" y="314" width="8" height="8" fill="#C4C4C4"/>
<rect x="39" y="330" width="8" height="8" fill="#C4C4C4"/>
<rect x="39" y="346" width="8" height="8" fill="#C4C4C4"/>
<rect x="39" y="362" width="8" height="8" fill="#C4C4C4"/>
<rect x="55" y="298" width="8" height="8" fill="#C4C4C4"/>
<rect x="55" y="314" width="8" height="8" fill="#C4C4C4"/>
<rect x="55" y="330" width="8" height="8" fill="#C4C4C4"/>
<rect x="55" y="346" width="8" height="8" fill="#C4C4C4"/>
<rect x="55" y="362" width="8" height="8" fill="#C4C4C4"/>
<rect x="71" y="298" width="8" height="8" fill="#C4C4C4"/>
<rect x="71" y="314" width="8" height="8" fill="#C4C4C4"/>
<rect x="71" y="330" width="8" height="8" fill="#C4C4C4"/>
<rect x="71" y="346" width="8" height="8" fill="#C4C4C4"/>
<rect x="71" y="362" width="8" height="8" fill="#C4C4C4"/>
<rect x="87" y="298" width="8" height="8" fill="#C4C4C4"/>
<rect x="87" y="314" width="8" height="8" fill="#C4C4C4"/>
<rect x="87" y="330" width="8" height="8" fill="#C4C4C4"/>
<rect x="87" y="346" width="8" height="8" fill="#C4C4C4"/>
<rect x="87" y="362" width="8" height="8" fill="#C4C4C4"/>
<rect x="31" y="290" width="8" height="8" fill="#C4C4C4"/>
<rect x="31" y="306" width="8" height="8" fill="#C4C4C4"/>
<rect x="31" y="322" width="8" height="8" fill="#C4C4C4"/>
<rect x="31" y="338" width="8" height="8" fill="#C4C4C4"/>
<rect x="31" y="354" width="8" height="8" fill="#C4C4C4"/>
<rect x="31" y="370" width="8" height="8" fill="#C4C4C4"/>
<rect x="47" y="290" width="8" height="8" fill="#C4C4C4"/>
<rect x="47" y="306" width="8" height="8" fill="#C4C4C4"/>
<rect x="47" y="322" width="8" height="8" fill="#C4C4C4"/>
<rect x="47" y="338" width="8" height="8" fill="#C4C4C4"/>
<rect x="47" y="354" width="8" height="8" fill="#C4C4C4"/>
<rect x="47" y="370" width="8" height="8" fill="#C4C4C4"/>
<rect x="63" y="290" width="8" height="8" fill="#C4C4C4"/>
<rect x="63" y="306" width="8" height="8" fill="#C4C4C4"/>
<rect x="63" y="322" width="8" height="8" fill="#C4C4C4"/>
<rect x="63" y="338" width="8" height="8" fill="#C4C4C4"/>
<rect x="63" y="354" width="8" height="8" fill="#C4C4C4"/>
<rect x="63" y="370" width="8" height="8" fill="#C4C4C4"/>
<rect x="79" y="290" width="8" height="8" fill="#C4C4C4"/>
<rect x="79" y="306" width="8" height="8" fill="#C4C4C4"/>
<rect x="79" y="322" width="8" height="8" fill="#C4C4C4"/>
<rect x="79" y="338" width="8" height="8" fill="#C4C4C4"/>
<rect x="79" y="354" width="8" height="8" fill="#C4C4C4"/>
<rect x="79" y="370" width="8" height="8" fill="#C4C4C4"/>
<rect x="95" y="290" width="8" height="8" fill="#C4C4C4"/>
<rect x="95" y="306" width="8" height="8" fill="#C4C4C4"/>
<rect x="95" y="322" width="8" height="8" fill="#C4C4C4"/>
<rect x="95" y="338" width="8" height="8" fill="#C4C4C4"/>
<rect x="95" y="354" width="8" height="8" fill="#C4C4C4"/>
<rect x="95" y="370" width="8" height="8" fill="#C4C4C4"/>
</mask>
<g mask="url(#mask0_203_982)">
<circle cx="57.2004" cy="335.8" r="37.8" fill="#C4C4C4"/>
</g>
<circle cx="5.05319" cy="787.191" r="5.05319" fill="#C4C4C4"/>
<circle cx="5.05319" cy="801.846" r="5.05319" fill="#C4C4C4"/>
<circle cx="5.05319" cy="815.995" r="5.05319" fill="#C4C4C4"/>
<circle cx="5.05319" cy="829.638" r="5.05319" fill="#C4C4C4"/>
<circle cx="5.05319" cy="844.293" r="5.05319" fill="#C4C4C4"/>
<circle cx="5.05319" cy="858.947" r="5.05319" fill="#C4C4C4"/>
<circle cx="19.2026" cy="787.191" r="5.05319" fill="#C4C4C4"/>
<circle cx="19.2026" cy="801.846" r="5.05319" fill="#C4C4C4"/>
<circle cx="19.2026" cy="815.995" r="5.05319" fill="#C4C4C4"/>
<circle cx="19.2026" cy="829.638" r="5.05319" fill="#C4C4C4"/>
<circle cx="19.2026" cy="844.293" r="5.05319" fill="#C4C4C4"/>
<circle cx="19.2026" cy="858.947" r="5.05319" fill="#C4C4C4"/>
<circle cx="12.1274" cy="794.771" r="5.05319" fill="#EC5242"/>
<circle cx="12.1274" cy="808.92" r="5.05319" fill="#EC5242"/>
<circle cx="12.1274" cy="822.564" r="5.05319" fill="#EC5242"/>
<circle cx="12.1274" cy="837.218" r="5.05319" fill="#EC5242"/>
<circle cx="12.1274" cy="851.872" r="5.05319" fill="#EC5242"/>
<circle cx="33.351" cy="787.191" r="5.05319" fill="#C4C4C4"/>
<circle cx="33.351" cy="801.846" r="5.05319" fill="#C4C4C4"/>
<circle cx="33.351" cy="815.995" r="5.05319" fill="#C4C4C4"/>
<circle cx="33.351" cy="829.638" r="5.05319" fill="#C4C4C4"/>
<circle cx="33.351" cy="844.293" r="5.05319" fill="#C4C4C4"/>
<circle cx="33.351" cy="858.947" r="5.05319" fill="#C4C4C4"/>
<circle cx="26.2768" cy="794.771" r="5.05319" fill="#EC5242"/>
<circle cx="26.2768" cy="808.92" r="5.05319" fill="#EC5242"/>
<circle cx="26.2768" cy="822.564" r="5.05319" fill="#EC5242"/>
<circle cx="26.2768" cy="837.218" r="5.05319" fill="#EC5242"/>
<circle cx="26.2768" cy="851.872" r="5.05319" fill="#EC5242"/>
<circle cx="47.5005" cy="787.191" r="5.05319" fill="#C4C4C4"/>
<circle cx="47.5005" cy="801.846" r="5.05319" fill="#C4C4C4"/>
<circle cx="47.5005" cy="815.995" r="5.05319" fill="#C4C4C4"/>
<circle cx="47.5005" cy="829.638" r="5.05319" fill="#C4C4C4"/>
<circle cx="47.5005" cy="844.293" r="5.05319" fill="#C4C4C4"/>
<circle cx="47.5005" cy="858.947" r="5.05319" fill="#C4C4C4"/>
<circle cx="40.4253" cy="794.771" r="5.05319" fill="#EC5242"/>
<circle cx="40.4253" cy="808.92" r="5.05319" fill="#EC5242"/>
<circle cx="40.4253" cy="822.564" r="5.05319" fill="#EC5242"/>
<circle cx="40.4253" cy="837.218" r="5.05319" fill="#EC5242"/>
<circle cx="40.4253" cy="851.872" r="5.05319" fill="#EC5242"/>
<circle cx="61.6489" cy="787.191" r="5.05319" fill="#C4C4C4"/>
<circle cx="61.6489" cy="801.846" r="5.05319" fill="#C4C4C4"/>
<circle cx="61.6489" cy="815.995" r="5.05319" fill="#C4C4C4"/>
<circle cx="61.6489" cy="829.638" r="5.05319" fill="#C4C4C4"/>
<circle cx="61.6489" cy="844.293" r="5.05319" fill="#C4C4C4"/>
<circle cx="61.6489" cy="858.947" r="5.05319" fill="#C4C4C4"/>
<circle cx="54.5747" cy="794.771" r="5.05319" fill="#EC5242"/>
<circle cx="54.5747" cy="808.92" r="5.05319" fill="#EC5242"/>
<circle cx="54.5747" cy="822.564" r="5.05319" fill="#EC5242"/>
<circle cx="54.5747" cy="837.218" r="5.05319" fill="#EC5242"/>
<circle cx="54.5747" cy="851.872" r="5.05319" fill="#EC5242"/>
<circle cx="75.7983" cy="787.191" r="5.05319" fill="#C4C4C4"/>
<circle cx="75.7983" cy="801.846" r="5.05319" fill="#C4C4C4"/>
<circle cx="75.7983" cy="815.995" r="5.05319" fill="#C4C4C4"/>
<circle cx="75.7983" cy="829.638" r="5.05319" fill="#C4C4C4"/>
<circle cx="75.7983" cy="844.293" r="5.05319" fill="#C4C4C4"/>
<circle cx="75.7983" cy="858.947" r="5.05319" fill="#C4C4C4"/>
<circle cx="68.7231" cy="794.771" r="5.05319" fill="#EC5242"/>
<circle cx="68.7231" cy="808.92" r="5.05319" fill="#EC5242"/>
<circle cx="68.7231" cy="822.564" r="5.05319" fill="#EC5242"/>
<circle cx="68.7231" cy="837.218" r="5.05319" fill="#EC5242"/>
<circle cx="68.7231" cy="851.872" r="5.05319" fill="#EC5242"/>
<circle cx="89.9467" cy="787.191" r="5.05319" fill="#C4C4C4"/>
<circle cx="89.9467" cy="801.846" r="5.05319" fill="#C4C4C4"/>
<circle cx="89.9467" cy="815.995" r="5.05319" fill="#C4C4C4"/>
<circle cx="89.9467" cy="829.638" r="5.05319" fill="#C4C4C4"/>
<circle cx="89.9467" cy="844.293" r="5.05319" fill="#C4C4C4"/>
<circle cx="89.9467" cy="858.947" r="5.05319" fill="#C4C4C4"/>
<circle cx="82.8725" cy="794.771" r="5.05319" fill="#EC5242"/>
<circle cx="82.8725" cy="808.92" r="5.05319" fill="#EC5242"/>
<circle cx="82.8725" cy="822.564" r="5.05319" fill="#EC5242"/>
<circle cx="82.8725" cy="837.218" r="5.05319" fill="#EC5242"/>
<circle cx="82.8725" cy="851.872" r="5.05319" fill="#EC5242"/>
<mask id="mask1_203_982" style="mask-type:alpha" maskUnits="userSpaceOnUse" x="580" y="571" width="114" height="114">
<rect x="580" y="571" width="10.3636" height="10.3636" fill="#C4C4C4"/>
<rect x="580" y="591.727" width="10.3636" height="10.3636" fill="#C4C4C4"/>
<rect x="580" y="612.455" width="10.3636" height="10.3636" fill="#C4C4C4"/>
<rect x="580" y="633.182" width="10.3636" height="10.3636" fill="#C4C4C4"/>
<rect x="580" y="653.909" width="10.3636" height="10.3636" fill="#C4C4C4"/>
<rect x="580" y="674.636" width="10.3636" height="10.3636" fill="#C4C4C4"/>
<rect x="590.363" y="581.364" width="10.3636" height="10.3636" fill="#C4C4C4"/>
<rect x="590.363" y="602.091" width="10.3636" height="10.3636" fill="#C4C4C4"/>
<rect x="590.363" y="622.818" width="10.3636" height="10.3636" fill="#C4C4C4"/>
<rect x="590.363" y="643.545" width="10.3636" height="10.3636" fill="#C4C4C4"/>
<rect x="590.363" y="664.273" width="10.3636" height="10.3636" fill="#C4C4C4"/>
<rect x="611.091" y="581.364" width="10.3636" height="10.3636" fill="#C4C4C4"/>
<rect x="611.091" y="602.091" width="10.3636" height="10.3636" fill="#C4C4C4"/>
<rect x="611.091" y="622.818" width="10.3636" height="10.3636" fill="#C4C4C4"/>
<rect x="611.091" y="643.545" width="10.3636" height="10.3636" fill="#C4C4C4"/>
<rect x="611.091" y="664.273" width="10.3636" height="10.3636" fill="#C4C4C4"/>
<rect x="631.818" y="581.364" width="10.3636" height="10.3636" fill="#C4C4C4"/>
<rect x="631.818" y="602.091" width="10.3636" height="10.3636" fill="#C4C4C4"/>
<rect x="631.818" y="622.818" width="10.3636" height="10.3636" fill="#C4C4C4"/>
<rect x="631.818" y="643.545" width="10.3636" height="10.3636" fill="#C4C4C4"/>
<rect x="631.818" y="664.273" width="10.3636" height="10.3636" fill="#C4C4C4"/>
<rect x="652.546" y="581.364" width="10.3636" height="10.3636" fill="#C4C4C4"/>
<rect x="652.546" y="602.091" width="10.3636" height="10.3636" fill="#C4C4C4"/>
<rect x="652.546" y="622.818" width="10.3636" height="10.3636" fill="#C4C4C4"/>
<rect x="652.546" y="643.545" width="10.3636" height="10.3636" fill="#C4C4C4"/>
<rect x="652.546" y="664.273" width="10.3636" height="10.3636" fill="#C4C4C4"/>
<rect x="673.272" y="581.364" width="10.3636" height="10.3636" fill="#C4C4C4"/>
<rect x="673.272" y="602.091" width="10.3636" height="10.3636" fill="#C4C4C4"/>
<rect x="673.272" y="622.818" width="10.3636" height="10.3636" fill="#C4C4C4"/>
<rect x="673.272" y="643.545" width="10.3636" height="10.3636" fill="#C4C4C4"/>
<rect x="673.272" y="664.273" width="10.3636" height="10.3636" fill="#C4C4C4"/>
<rect x="600.728" y="571" width="10.3636" height="10.3636" fill="#C4C4C4"/>
<rect x="600.728" y="591.727" width="10.3636" height="10.3636" fill="#C4C4C4"/>
<rect x="600.728" y="612.455" width="10.3636" height="10.3636" fill="#C4C4C4"/>
<rect x="600.728" y="633.182" width="10.3636" height="10.3636" fill="#C4C4C4"/>
<rect x="600.728" y="653.909" width="10.3636" height="10.3636" fill="#C4C4C4"/>
<rect x="600.728" y="674.636" width="10.3636" height="10.3636" fill="#C4C4C4"/>
<rect x="621.454" y="571" width="10.3636" height="10.3636" fill="#C4C4C4"/>
<rect x="621.454" y="591.727" width="10.3636" height="10.3636" fill="#C4C4C4"/>
<rect x="621.454" y="612.455" width="10.3636" height="10.3636" fill="#C4C4C4"/>
<rect x="621.454" y="633.182" width="10.3636" height="10.3636" fill="#C4C4C4"/>
<rect x="621.454" y="653.909" width="10.3636" height="10.3636" fill="#C4C4C4"/>
<rect x="621.454" y="674.636" width="10.3636" height="10.3636" fill="#C4C4C4"/>
<rect x="642.182" y="571" width="10.3636" height="10.3636" fill="#C4C4C4"/>
<rect x="642.182" y="591.727" width="10.3636" height="10.3636" fill="#C4C4C4"/>
<rect x="642.182" y="612.455" width="10.3636" height="10.3636" fill="#C4C4C4"/>
<rect x="642.182" y="633.182" width="10.3636" height="10.3636" fill="#C4C4C4"/>
<rect x="642.182" y="653.909" width="10.3636" height="10.3636" fill="#C4C4C4"/>
<rect x="642.182" y="674.636" width="10.3636" height="10.3636" fill="#C4C4C4"/>
<rect x="662.909" y="571" width="10.3636" height="10.3636" fill="#C4C4C4"/>
<rect x="662.909" y="591.727" width="10.3636" height="10.3636" fill="#C4C4C4"/>
<rect x="662.909" y="612.455" width="10.3636" height="10.3636" fill="#C4C4C4"/>
<rect x="662.909" y="633.182" width="10.3636" height="10.3636" fill="#C4C4C4"/>
<rect x="662.909" y="653.909" width="10.3636" height="10.3636" fill="#C4C4C4"/>
<rect x="662.909" y="674.636" width="10.3636" height="10.3636" fill="#C4C4C4"/>
<rect x="683.637" y="571" width="10.3636" height="10.3636" fill="#C4C4C4"/>
<rect x="683.637" y="591.727" width="10.3636" height="10.3636" fill="#C4C4C4"/>
<rect x="683.637" y="612.455" width="10.3636" height="10.3636" fill="#C4C4C4"/>
<rect x="683.637" y="633.182" width="10.3636" height="10.3636" fill="#C4C4C4"/>
<rect x="683.637" y="653.909" width="10.3636" height="10.3636" fill="#C4C4C4"/>
<rect x="683.637" y="674.636" width="10.3636" height="10.3636" fill="#C4C4C4"/>
</mask>
<g mask="url(#mask1_203_982)">
<circle cx="634.668" cy="630.332" r="48.9682" fill="#C4C4C4"/>
</g>
<mask id="mask2_203_982" style="mask-type:alpha" maskUnits="userSpaceOnUse" x="614" y="290" width="80" height="80">
<circle cx="654" cy="330" r="40" fill="#C4C4C4"/>
</mask>
<g mask="url(#mask2_203_982)">
<circle cx="612.61" cy="291.639" r="5.23732" fill="#C4C4C4"/>
<circle cx="612.61" cy="306.828" r="5.23732" fill="#C4C4C4"/>
<circle cx="612.61" cy="321.492" r="5.23732" fill="#C4C4C4"/>
<circle cx="612.61" cy="335.633" r="5.23732" fill="#C4C4C4"/>
<circle cx="612.61" cy="350.821" r="5.23732" fill="#C4C4C4"/>
<circle cx="612.61" cy="366.009" r="5.23732" fill="#C4C4C4"/>
<circle cx="627.274" cy="291.639" r="5.23732" fill="#C4C4C4"/>
<circle cx="627.274" cy="306.828" r="5.23732" fill="#C4C4C4"/>
<circle cx="627.274" cy="321.492" r="5.23732" fill="#C4C4C4"/>
<circle cx="627.274" cy="335.633" r="5.23732" fill="#C4C4C4"/>
<circle cx="627.274" cy="350.821" r="5.23732" fill="#C4C4C4"/>
<circle cx="627.274" cy="366.009" r="5.23732" fill="#C4C4C4"/>
<circle cx="619.942" cy="299.495" r="5.23732" fill="#EC5242"/>
<circle cx="619.942" cy="314.16" r="5.23732" fill="#EC5242"/>
<circle cx="619.942" cy="328.301" r="5.23732" fill="#EC5242"/>
<circle cx="619.942" cy="343.489" r="5.23732" fill="#EC5242"/>
<circle cx="619.942" cy="358.677" r="5.23732" fill="#EC5242"/>
<circle cx="641.939" cy="291.639" r="5.23732" fill="#C4C4C4"/>
<circle cx="641.939" cy="306.828" r="5.23732" fill="#C4C4C4"/>
<circle cx="641.939" cy="321.492" r="5.23732" fill="#C4C4C4"/>
<circle cx="641.939" cy="335.633" r="5.23732" fill="#C4C4C4"/>
<circle cx="641.939" cy="350.821" r="5.23732" fill="#C4C4C4"/>
<circle cx="641.939" cy="366.009" r="5.23732" fill="#C4C4C4"/>
<circle cx="634.607" cy="299.495" r="5.23732" fill="#EC5242"/>
<circle cx="634.607" cy="314.16" r="5.23732" fill="#EC5242"/>
<circle cx="634.607" cy="328.301" r="5.23732" fill="#EC5242"/>
<circle cx="634.607" cy="343.489" r="5.23732" fill="#EC5242"/>
<circle cx="634.607" cy="358.677" r="5.23732" fill="#EC5242"/>
<circle cx="656.604" cy="291.639" r="5.23732" fill="#C4C4C4"/>
<circle cx="656.604" cy="306.828" r="5.23732" fill="#C4C4C4"/>
<circle cx="656.604" cy="321.492" r="5.23732" fill="#C4C4C4"/>
<circle cx="656.604" cy="335.633" r="5.23732" fill="#C4C4C4"/>
<circle cx="656.604" cy="350.821" r="5.23732" fill="#C4C4C4"/>
<circle cx="656.604" cy="366.009" r="5.23732" fill="#C4C4C4"/>
<circle cx="649.271" cy="299.495" r="5.23732" fill="#EC5242"/>
<circle cx="649.271" cy="314.16" r="5.23732" fill="#EC5242"/>
<circle cx="649.271" cy="328.301" r="5.23732" fill="#EC5242"/>
<circle cx="649.271" cy="343.489" r="5.23732" fill="#EC5242"/>
<circle cx="649.271" cy="358.677" r="5.23732" fill="#EC5242"/>
<circle cx="671.269" cy="291.639" r="5.23732" fill="#C4C4C4"/>
<circle cx="671.269" cy="306.828" r="5.23732" fill="#C4C4C4"/>
<circle cx="671.269" cy="321.492" r="5.23732" fill="#C4C4C4"/>
<circle cx="671.269" cy="335.633" r="5.23732" fill="#C4C4C4"/>
<circle cx="671.269" cy="350.821" r="5.23732" fill="#C4C4C4"/>
<circle cx="671.269" cy="366.009" r="5.23732" fill="#C4C4C4"/>
<circle cx="663.936" cy="299.495" r="5.23732" fill="#EC5242"/>
<circle cx="663.936" cy="314.16" r="5.23732" fill="#EC5242"/>
<circle cx="663.936" cy="328.301" r="5.23732" fill="#EC5242"/>
<circle cx="663.936" cy="343.489" r="5.23732" fill="#EC5242"/>
<circle cx="663.936" cy="358.677" r="5.23732" fill="#EC5242"/>
<circle cx="685.933" cy="291.639" r="5.23732" fill="#C4C4C4"/>
<circle cx="685.933" cy="306.828" r="5.23732" fill="#C4C4C4"/>
<circle cx="685.933" cy="321.492" r="5.23732" fill="#C4C4C4"/>
<circle cx="685.933" cy="335.633" r="5.23732" fill="#C4C4C4"/>
<circle cx="685.933" cy="350.821" r="5.23732" fill="#C4C4C4"/>
<circle cx="685.933" cy="366.009" r="5.23732" fill="#C4C4C4"/>
<circle cx="678.601" cy="299.495" r="5.23732" fill="#EC5242"/>
<circle cx="678.601" cy="314.16" r="5.23732" fill="#EC5242"/>
<circle cx="678.601" cy="328.301" r="5.23732" fill="#EC5242"/>
<circle cx="678.601" cy="343.489" r="5.23732" fill="#EC5242"/>
<circle cx="678.601" cy="358.677" r="5.23732" fill="#EC5242"/>
<circle cx="693.265" cy="299.495" r="5.23732" fill="#EC5242"/>
<circle cx="693.265" cy="314.16" r="5.23732" fill="#EC5242"/>
<circle cx="693.265" cy="328.301" r="5.23732" fill="#EC5242"/>
<circle cx="693.265" cy="343.489" r="5.23732" fill="#EC5242"/>
<circle cx="693.265" cy="358.677" r="5.23732" fill="#EC5242"/>
</g>
<mask id="mask3_203_982" style="mask-type:alpha" maskUnits="userSpaceOnUse" x="369" y="0" width="60" height="60">
<circle cx="399" cy="30" r="30" fill="#C4C4C4"/>
</mask>
<g mask="url(#mask3_203_982)">
<circle cx="367.957" cy="1.2295" r="3.92799" fill="#C4C4C4"/>
<circle cx="367.957" cy="12.6206" r="3.92799" fill="#C4C4C4"/>
<circle cx="367.957" cy="23.619" r="3.92799" fill="#C4C4C4"/>
<circle cx="367.957" cy="34.2246" r="3.92799" fill="#C4C4C4"/>
<circle cx="367.957" cy="45.6157" r="3.92799" fill="#C4C4C4"/>
<circle cx="367.957" cy="57.007" r="3.92799" fill="#C4C4C4"/>
<circle cx="378.956" cy="1.2295" r="3.92799" fill="#C4C4C4"/>
<circle cx="378.956" cy="12.6206" r="3.92799" fill="#C4C4C4"/>
<circle cx="378.956" cy="23.619" r="3.92799" fill="#C4C4C4"/>
<circle cx="378.956" cy="34.2246" r="3.92799" fill="#C4C4C4"/>
<circle cx="378.956" cy="45.6157" r="3.92799" fill="#C4C4C4"/>
<circle cx="378.956" cy="57.007" r="3.92799" fill="#C4C4C4"/>
<circle cx="373.457" cy="7.12147" r="3.92799" fill="#EC5242"/>
<circle cx="373.457" cy="18.1199" r="3.92799" fill="#EC5242"/>
<circle cx="373.457" cy="28.7253" r="3.92799" fill="#EC5242"/>
<circle cx="373.457" cy="40.1166" r="3.92799" fill="#EC5242"/>
<circle cx="373.457" cy="51.5077" r="3.92799" fill="#EC5242"/>
<circle cx="389.954" cy="1.2295" r="3.92799" fill="#C4C4C4"/>
<circle cx="389.954" cy="12.6206" r="3.92799" fill="#C4C4C4"/>
<circle cx="389.954" cy="23.619" r="3.92799" fill="#C4C4C4"/>
<circle cx="389.954" cy="34.2246" r="3.92799" fill="#C4C4C4"/>
<circle cx="389.954" cy="45.6157" r="3.92799" fill="#C4C4C4"/>
<circle cx="389.954" cy="57.007" r="3.92799" fill="#C4C4C4"/>
<circle cx="384.455" cy="7.12147" r="3.92799" fill="#EC5242"/>
<circle cx="384.455" cy="18.1199" r="3.92799" fill="#EC5242"/>
<circle cx="384.455" cy="28.7253" r="3.92799" fill="#EC5242"/>
<circle cx="384.455" cy="40.1166" r="3.92799" fill="#EC5242"/>
<circle cx="384.455" cy="51.5077" r="3.92799" fill="#EC5242"/>
<circle cx="400.952" cy="1.2295" r="3.92799" fill="#C4C4C4"/>
<circle cx="400.952" cy="12.6206" r="3.92799" fill="#C4C4C4"/>
<circle cx="400.952" cy="23.619" r="3.92799" fill="#C4C4C4"/>
<circle cx="400.952" cy="34.2246" r="3.92799" fill="#C4C4C4"/>
<circle cx="400.952" cy="45.6157" r="3.92799" fill="#C4C4C4"/>
<circle cx="400.952" cy="57.007" r="3.92799" fill="#C4C4C4"/>
<circle cx="395.453" cy="7.12147" r="3.92799" fill="#EC5242"/>
<circle cx="395.453" cy="18.1199" r="3.92799" fill="#EC5242"/>
<circle cx="395.453" cy="28.7253" r="3.92799" fill="#EC5242"/>
<circle cx="395.453" cy="40.1166" r="3.92799" fill="#EC5242"/>
<circle cx="395.453" cy="51.5077" r="3.92799" fill="#EC5242"/>
<circle cx="411.951" cy="1.2295" r="3.92799" fill="#C4C4C4"/>
<circle cx="411.951" cy="12.6206" r="3.92799" fill="#C4C4C4"/>
<circle cx="411.951" cy="23.619" r="3.92799" fill="#C4C4C4"/>
<circle cx="411.951" cy="34.2246" r="3.92799" fill="#C4C4C4"/>
<circle cx="411.951" cy="45.6157" r="3.92799" fill="#C4C4C4"/>
<circle cx="411.951" cy="57.007" r="3.92799" fill="#C4C4C4"/>
<circle cx="406.451" cy="7.12147" r="3.92799" fill="#EC5242"/>
<circle cx="406.451" cy="18.1199" r="3.92799" fill="#EC5242"/>
<circle cx="406.451" cy="28.7253" r="3.92799" fill="#EC5242"/>
<circle cx="406.451" cy="40.1166" r="3.92799" fill="#EC5242"/>
<circle cx="406.451" cy="51.5077" r="3.92799" fill="#EC5242"/>
<circle cx="422.949" cy="1.2295" r="3.92799" fill="#C4C4C4"/>
<circle cx="422.949" cy="12.6206" r="3.92799" fill="#C4C4C4"/>
<circle cx="422.949" cy="23.619" r="3.92799" fill="#C4C4C4"/>
<circle cx="422.949" cy="34.2246" r="3.92799" fill="#C4C4C4"/>
<circle cx="422.949" cy="45.6157" r="3.92799" fill="#C4C4C4"/>
<circle cx="422.949" cy="57.007" r="3.92799" fill="#C4C4C4"/>
<circle cx="417.45" cy="7.12147" r="3.92799" fill="#EC5242"/>
<circle cx="417.45" cy="18.1199" r="3.92799" fill="#EC5242"/>
<circle cx="417.45" cy="28.7253" r="3.92799" fill="#EC5242"/>
<circle cx="417.45" cy="40.1166" r="3.92799" fill="#EC5242"/>
<circle cx="417.45" cy="51.5077" r="3.92799" fill="#EC5242"/>
<circle cx="428.448" cy="7.12147" r="3.92799" fill="#EC5242"/>
<circle cx="428.448" cy="18.1199" r="3.92799" fill="#EC5242"/>
<circle cx="428.448" cy="28.7253" r="3.92799" fill="#EC5242"/>
<circle cx="428.448" cy="40.1166" r="3.92799" fill="#EC5242"/>
<circle cx="428.448" cy="51.5077" r="3.92799" fill="#EC5242"/>
</g>
</svg>
