<svg xmlns="http://www.w3.org/2000/svg">
<defs>
<font horiz-adv-x="1279" ><font-face
    font-family="COCOGOOSE"
    units-per-em="2000"
    panose-1="2 0 0 0 0 0 0 0 0 0"
    ascent="2102"
    descent="-794"
    alphabetic="0" />
<missing-glyph horiz-adv-x="1368" d="M969 250Q912 202 840 173T687 144Q606 144 535 173T407 250H969ZM373 282Q323 339 296 411T269 564Q269 641 293 707T363 830H919L373 282ZM405 876Q462 927 534 955T687 984Q768 984 839 955T965 876H405ZM1105 564Q1105
487 1081 420T1011 296H453L999 846Q1105 715 1105 564ZM823 76Q757 58 687 58Q579 58 487 99T326 209T220 370T181 564Q181 672 222 765T332 926T493 1033T687 1072Q796 1072 889 1030T1049 918T1155 756T1193 564Q1193 472 1164 394T1085 252T968 144T823 76ZM809
1012Q755 1030 687 1030Q586 1030 501 992T355 890T258 742T223 564Q223 470 258 386T356 237T504 134T687 96Q783 96 868 132T1016 232T1116 381T1153 564Q1153 649 1126 722T1052 854T942 952T809 1012ZM132 244L158 200L135 187L89 264L100 270Q106 275 113
273L192 265L167 307L190 320L234 244L224 238Q220 236 218 236Q216 235 212 235L132 244ZM202 104L153 162L241 236L290 177L270 161L238 198L225 187L250 157L230 140L205 170L190 158L222 121L202 104ZM279 150L296 170L366 111L349 91L325 112L267 44L247 62L304
129L279 150ZM391 96L410 84L394 -39L378 -30Q376 -28 374 -27Q372 -25 372 -23Q370 -19 370 -18V-13L372 1L334 23L323 15Q322 14 321 14T319 13H314Q312 12 311 12T309 13Q307 14 306 14T304 15L289 24L391 96ZM381 58Q379 56 379 56Q377 54 377 54L375 52L358
40L376 29L378 50Q378 51 378 51T379 53Q379 54 379 54T380 55Q380 56 380 56T381 58ZM499 -6L489 -31L451 -15L436 -55L410 -45L452 61L523 33L514 9L468 27L461 9L499 -6ZM508 -23Q509 -18 513 -8L522 4Q525 8 533 14Q537 17 547 21Q553 22 562 24Q572 24 577
22Q588 20 592 17Q597 15 605 9Q609 6 615 -2Q620 -10 621 -16Q623 -21 625 -31Q625 -41 624 -46Q622 -55 618 -61Q616 -66 610 -74Q608 -76 605 -78T599 -83Q592 -87 585 -90Q577 -93 570 -93Q566 -93 563 -93T554 -92Q549 -91 539 -87Q533 -84 527 -78Q523 -75

<glyph unicode=" " glyph-name="space" horiz-adv-x="627" />
<glyph unicode="!" glyph-name="exclam" horiz-adv-x="681" d="M163 1602Q163 1646 212 1646H472Q516 1646 516 1602V524Q516 505 505 493T472 480H212Q197 480 180 492T163 524V1602ZM163 287Q163 307 174 319T207 331H471Q488 331 502 319T517 287V45Q517 27
505 13T471 -1H207Q163 -1 163 45V287Z" />
<glyph unicode="&quot;" glyph-name="quotedbl" horiz-adv-x="760" d="M95 1442Q95 1486 139 1486H288Q332 1486 332 1442V1052Q332 1008 288 1008H139Q95 1008 95 1052V1442ZM425 1442Q425 1486 469 1486H618Q662 1486 662 1442V1052Q662 1008 618 1008H469Q425
1008 425 1052V1442Z" />
<glyph unicode="#" glyph-name="numbersign" horiz-adv-x="1261" d="M1113 1131Q1131 1131 1144 1120T1157 1087V906Q1157 899 1154 891T1145 875T1131 863T1113 858H970V625H1113Q1131 625 1144 614T1157 581V400Q1157 393 1154 385T1145 369T1131 357T1113 352H970V44Q970
0 922 0H741Q697 0 697 44V352H552V44Q552 0 504 0H323Q279 0 279 44V352H156Q112 352 112 400V581Q112 625 156 625H279V858H156Q112 858 112 906V1087Q112 1131 156 1131H279V1441Q279 1459 290 1472T323 1485H504Q519 1485 535 1473T552 1441V1131H697V1441Q697
1459 708 1472T741 1485H922Q937 1485 953 1473T970 1441V1131H1113ZM552 625H697V858H552V625Z" />
<glyph unicode="$" glyph-name="dollar" horiz-adv-x="1287" d="M338 479Q355 465 381 442T442 395Q493 361 543 342T648 323Q699 323 733 334T788 365T816 409T825 462Q825 493 802 517T744 561T673 593T609 616Q489 658 399 706T249 814T159 945T129 1105Q129
1182 155 1247T229 1363T346 1449T503 1502V1641Q503 1659 514 1672T547 1685H735Q750 1685 766 1673T783 1641V1507Q839 1497 892 1479T999 1431Q1033 1411 1063 1390T1117 1348T1153 1310T1167 1279Q1167 1266 1161 1255T1141 1230L988 1067Q971 1050 954 1050Q940
1050 929 1058T903 1078L894 1086Q874 1103 850 1121T797 1153T738 1177T675 1187Q642 1187 613 1182T562 1164T527 1133T514 1085Q514 1057 528 1037T570 999T639 966T736 932Q842 897 931 859T1086 768T1187 642T1224 465Q1224 371 1191 293T1099 153T960 52T783
-6V-149Q783 -193 735 -193H547Q503 -193 503 -149V-3Q424 14 350 49T210 132Q170 161 143 189T99 234L96 237Q95 239 94 239T92 241Q91 243 90 243T88 245Q65 270 65 285Q65 302 88 323L261 488Q282 503 295 503Q304 503 314 497T338 479Z" />
<glyph unicode="%" glyph-name="percent" horiz-adv-x="1863" d="M46 1142Q46 1222 76 1292T158 1414T280 1497T431 1527Q511 1527 581 1497T703 1415T786 1292T816 1142Q816 1062 786 992T704 869T581 787T431 757Q351 757 281 787T158 869T76 991T46 1142ZM1086
1441Q1094 1459 1109 1472T1150 1485H1367Q1387 1485 1402 1477T1418 1454Q1418 1443 1416 1441L784 44Q773 19 763 10T731 0H492Q450 0 450 26L452 30L455 44L1086 1441ZM314 1142Q314 1091 347 1058T431 1025Q455 1025 476 1034T513 1058T538 1095T547 1142Q547
1167 538 1188T514 1224T477 1249T431 1258Q405 1258 384 1250T347 1226T323 1189T314 1142ZM1046 365Q1046 445 1076 515T1158 637T1280 720T1431 750Q1511 750 1581 720T1703 638T1786 515T1816 365Q1816 285 1786 215T1704 92T1581 10T1431 -20Q1351 -20 1281
10T1158 92T1076 214T1046 365ZM1314 365Q1314 314 1347 281T1431 248Q1455 248 1476 257T1513 281T1538 318T1547 365Q1547 390 1538 411T1514 447T1477 472T1431 481Q1405 481 1384 473T1347 449T1323 412T1314 365Z" />
<glyph unicode="&amp;" glyph-name="ampersand" horiz-adv-x="1795" d="M1303 719Q1306 718 1315 718Q1344 718 1369 734T1406 779Q1414 785 1417 794T1421 812Q1426 830 1435 840T1459 851Q1466 851 1468 850L1691 806Q1705 806 1716 790T1728 759Q1728 751 1727
748Q1714 670 1678 607T1590 498T1473 428T1338 403Q1306 403 1273 409L1207 421Q1200 327 1174 258T1106 140T1011 61T897 13T771 -10T642 -17Q534 -17 437 18T266 116T149 265T106 455Q106 530 120 587T162 690T226 772T310 840Q264 888 235 954T205 1098Q205
1184 240 1258T335 1386T471 1472T631 1503Q714 1503 791 1481T927 1410T1021 1283T1056 1090Q1056 1067 1043 1055T1011 1043Q960 1043 909 1043T806 1042Q763 1042 763 1080Q763 1105 758 1125T739 1161T705 1184T651 1193Q615 1193 593 1181T558 1150T541 1110T536
1070Q536 1060 541 1039T559 996T593 954T645 929Q680 923 680 889Q680 881 679 878L640 690Q638 671 627 664T602 656Q594 656 587 657T573 658Q541 658 521 641T488 601T472 554T467 513Q467 483 475 448T506 382T566 331T664 310Q703 310 739 321T803 355T848
411T868 488L809 500Q795 503 787 514T778 540Q778 548 779 550Q789 605 800 659T822 770Q825 786 835 795T860 804Q867 804 869 803L1303 719Z" />
<glyph unicode="&apos;" glyph-name="quotesingle" horiz-adv-x="611" d="M147 1441Q147 1485 191 1485H387Q431 1485 431 1441V1054Q431 1010 387 1010H191Q147 1010 147 1054V1441Z" />
<glyph unicode="(" glyph-name="parenleft" horiz-adv-x="805" d="M407 -253Q269 -35 196 214T123 739Q123 1014 196 1263T407 1731Q417 1748 433 1751T464 1742L702 1594Q718 1583 720 1567T712 1538Q597 1355 541 1156T485 739Q485 520 540 322Q599 121 712
-59Q722 -73 720 -89T702 -116L464 -264Q449 -275 433 -273T407 -253Z" />
<glyph unicode=")" glyph-name="parenright" horiz-adv-x="807" d="M391 -253Q381 -270 365 -272T334 -264L96 -116Q80 -105 78 -89T86 -59Q199 121 258 322Q313 520 313 739Q313 956 257 1155T86 1538Q76 1551 78 1567T96 1594L334 1742Q349 1754 365 1751T391
1731Q529 1513 602 1264T675 739Q675 464 602 215T391 -253Z" />
<glyph unicode="*" glyph-name="asterisk" horiz-adv-x="983" d="M199 831Q196 835 194 842T192 854Q195 879 219 896L379 988Q388 994 403 994Q411 994 421 988T439 969L493 828L547 969Q555 992 584 992Q595 992 607 988L766 893Q790 881 790 848Q787 843 787
831L678 708L840 740Q857 740 871 728T885 695V511Q885 495 873 479T840 462L678 493L787 370Q789 365 791 359T794 344Q794 320 771 307L611 215Q604 208 587 208Q557 208 547 230L493 370L439 230Q434 219 424 214T402 208Q387 208 374 215L215 309Q191 322 191
344Q191 352 192 358T199 370L306 493L146 462Q101 462 101 511V695Q101 716 112 728T146 740L306 708L199 831Z" />
<glyph unicode="+" glyph-name="plus" horiz-adv-x="900" d="M62 706Q62 750 106 750H289V943Q289 987 337 987H561Q605 987 605 943V750H788Q806 750 819 739T832 706V503Q832 488 820 472T788 455H605V261Q605 243 594 230T561 217H337Q322 217 306 229T289
261V455H106Q62 455 62 503V706Z" />
<glyph unicode="," glyph-name="comma" horiz-adv-x="611" d="M136 288Q136 308 147 320T180 332H444Q461 332 476 320T491 288V1Q491 -93 442 -176T302 -311Q299 -314 288 -314Q274 -314 266 -311T252 -300L183 -243Q172 -235 169 -227T165 -210Q165 -197 178
-184T208 -155T238 -117T252 -65V-21Q252 -2 234 0H177Q136 2 136 44V288Z" />
<glyph unicode="-" glyph-name="hyphen" horiz-adv-x="1100" d="M167 706Q167 750 211 750H893Q911 750 924 739T937 706V503Q937 488 925 472T893 455H211Q167 455 167 503V706Z" />
<glyph unicode="." glyph-name="period" horiz-adv-x="611" d="M136 288Q136 308 147 320T180 332H444Q461 332 475 320T490 288V46Q490 28 479 14T444 0H180Q136 0 136 46V288Z" />
<glyph unicode="/" glyph-name="slash" horiz-adv-x="1104" d="M664 1441Q672 1459 687 1472T728 1485H1005Q1025 1485 1040 1477T1056 1454Q1056 1443 1054 1441L422 44Q411 19 401 10T370 0H70Q29 0 29 26Q29 28 30 30L33 44L664 1441Z" />
<glyph unicode="0" glyph-name="zero" horiz-adv-x="1728" d="M480 742Q480 658 509 586T591 459T713 374T867 343Q949 343 1020 374T1144 459T1226 585T1256 742Q1256 825 1226 898T1144 1026T1021 1112T867 1144Q784 1144 714 1113T591 1027T510 899T480 742ZM102
741Q102 846 129 944T206 1127T325 1282T480 1401T662 1478T866 1506Q971 1506 1069 1479T1252 1402T1406 1282T1525 1127T1602 944T1630 741Q1630 635 1603 538T1526 356T1407 202T1252 82T1069 5T866 -22Q760 -22 663 5T480 82T326 201T206 355T129 537T102 741Z"
/>
<glyph unicode="1" glyph-name="one" horiz-adv-x="751" d="M55 1333Q55 1371 99 1395L235 1462Q261 1479 286 1482T350 1485H576Q596 1485 610 1473T624 1441V44Q624 0 577 0H293Q268 0 259 13T249 42V1144L112 1076Q107 1074 102 1074T95 1071Q76 1071 66 1085T55
1118V1333Z" />
<glyph unicode="2" glyph-name="two" horiz-adv-x="1291" d="M655 329H1105Q1125 329 1138 318T1151 284V51Q1151 32 1138 16T1104 0H183Q164 0 148 15T132 51V200Q132 214 139 227L746 952Q773 983 780 1005T787 1054Q787 1088 774 1114T740 1157T693 1184T640
1193Q610 1193 584 1181T537 1149T505 1102T493 1047V992Q493 976 480 960T443 944H187Q162 944 153 957T143 986V1038Q143 1143 182 1230T288 1381T444 1479T634 1514Q737 1514 831 1482T996 1390T1110 1246T1153 1056Q1153 1002 1140 955T1106 865T1057 787T999
717L655 329Z" />
<glyph unicode="3" glyph-name="three" horiz-adv-x="1199" d="M548 640Q530 640 518 648T505 679Q505 734 505 788T506 900Q506 943 549 943Q580 943 601 955T634 984T651 1022T656 1061Q656 1074 654 1095T641 1137T610 1173T553 1188Q522 1188 502 1178T471
1151T456 1111T451 1064H448L449 1063Q449 1022 406 1022H376Q331 1022 289 1022T201 1023Q183 1023 170 1034T157 1067L158 1068H156Q156 1182 190 1263T281 1397T413 1473T573 1498Q656 1498 731 1467T864 1380T955 1250T989 1089Q989 1011 960 948T883 836Q929
804 970 770T1041 692T1090 593T1108 462Q1108 359 1067 271T954 117T788 15T584 -22Q516 -22 451 -14T327 15T221 73T137 167T82 306T62 497Q63 515 73 526T108 543H349Q362 543 377 532T392 499Q391 498 390 498H392Q392 391 441 344T576 296Q613 296 644 307T697
339T732 394T745 473Q745 558 700 599T552 640H548Z" />
<glyph unicode="4" glyph-name="four" horiz-adv-x="1317" d="M89 224Q60 224 47 241T34 279Q34 307 51 330L701 1459Q711 1476 723 1480T767 1485H1038Q1053 1484 1069 1472T1085 1441V567H1205Q1225 567 1238 556T1252 521V271Q1252 254 1239 240T1205 225H1085V44Q1085
0 1037 0H766Q722 0 722 44V224H89ZM737 564V908L535 564H737Z" />
<glyph unicode="5" glyph-name="five" horiz-adv-x="1209" d="M73 415Q74 440 105 443L346 501Q349 502 357 502Q368 502 372 497T383 485Q384 459 401 429T445 371T505 326T571 308Q605 308 638 318T698 349T740 405T756 489Q756 529 740 564T695 626T629 668T550
683Q536 683 525 681T504 676Q464 670 429 664T348 661H174Q148 661 133 672T116 715Q134 898 152 1076T187 1436Q187 1487 235 1487H901Q903 1487 905 1487T910 1486H990Q1038 1486 1038 1436Q1038 1376 1038 1318T1037 1199Q1037 1179 1024 1164T987 1149H495L480
987Q508 992 539 994T598 997Q713 997 806 955T966 843T1069 683T1105 497Q1105 387 1061 293T944 128T775 19T576 -21V-20Q482 -20 401 11T257 97T148 223T80 376Q77 386 75 396T73 415Z" />
<glyph unicode="6" glyph-name="six" horiz-adv-x="1238" d="M96 428Q94 445 93 462T92 497Q92 629 156 741Q157 742 159 746T173 770T209 832T276 952T386 1149T550 1441Q561 1462 576 1473T616 1485H900Q939 1485 939 1462Q939 1458 937 1449T933 1437Q898 1375
872 1329T824 1245T785 1176T751 1116T717 1057T680 990Q776 979 860 937T1006 827T1103 674T1139 488Q1139 382 1098 290T986 129T820 21T615 -19Q514 -19 425 13T265 105T151 246T96 428ZM442 485Q442 445 454 411T488 352T541 313T611 299Q650 299 681 313T734
352T768 411T780 485Q780 524 768 558T735 617T682 658T611 673Q572 673 541 658T488 618T454 558T442 485Z" />
<glyph unicode="7" glyph-name="seven" horiz-adv-x="1312" d="M1241 1486Q1269 1486 1282 1469T1296 1430Q1296 1404 1278 1379L566 34Q558 18 543 9T511 0H155Q119 0 119 26Q119 36 123 44L690 1132H149Q129 1132 116 1143T102 1178V1440Q102 1460 116 1473T149
1486H1241Z" />
<glyph unicode="8" glyph-name="eight" horiz-adv-x="1240" d="M516 1077Q516 1032 546 1002T622 971Q644 971 663 979T697 1001T720 1035T729 1077Q729 1099 721 1118T698 1151T664 1174T622 1183Q599 1183 580 1175T547 1152T524 1118T516 1077ZM450 492Q450
456 462 424T498 368T552 331T621 317Q657 317 687 330T739 368T773 424T785 493Q785 529 774 561T741 618T690 657T621 672Q582 672 551 658T497 618T462 561T450 492ZM86 488Q86 546 100 598T138 697T197 782T274 853Q240 902 219 965T198 1091Q198 1175 231
1249T322 1380T456 1470T620 1503Q705 1503 782 1470T918 1381T1010 1250T1045 1091Q1045 1028 1023 965T964 853Q1052 784 1101 692T1150 484Q1150 377 1112 286T1003 127T836 21T620 -18Q501 -18 403 20T235 125T125 285T86 488Z" />
<glyph unicode="9" glyph-name="nine" horiz-adv-x="1247" d="M1142 1057Q1144 1040 1145 1024T1147 992Q1146 926 1131 864T1083 744L689 44Q678 23 663 12T623 0H339Q300 0 300 22Q300 26 302 36T306 48Q341 109 368 156T416 240T454 309T487 369T521 428T559
495Q462 505 378 548T232 658T135 812T99 997Q99 1103 140 1195T252 1356T418 1464T623 1504Q724 1504 813 1472T972 1380T1086 1238T1142 1057ZM792 1000Q792 1040 780 1074T746 1133T693 1172T622 1186Q583 1186 552 1172T499 1133T465 1074T453 1000Q453 961
465 927T499 868T552 827T622 812Q661 812 692 827T746 867T780 927T792 1000Z" />
<glyph unicode=":" glyph-name="colon" horiz-adv-x="611" d="M136 1083Q136 1103 147 1115T180 1127H444Q461 1127 475 1115T490 1083V841Q490 823 479 809T444 795H180Q136 795 136 841V1083ZM136 288Q136 308 147 320T180 332H444Q461 332 475 320T490 288V46Q490
28 479 14T444 0H180Q136 0 136 46V288Z" />
<glyph unicode=";" glyph-name="semicolon" horiz-adv-x="611" d="M386 288Q386 308 397 320T430 332H694Q711 332 726 320T741 288V1Q741 -93 692 -176T552 -311Q549 -314 538 -314Q524 -314 516 -311T502 -300L433 -243Q422 -235 419 -227T415 -210Q415 -197
428 -184T458 -155T488 -117T502 -65V-21Q502 -2 484 0H427Q386 2 386 44V288ZM136 1083Q136 1103 147 1115T180 1127H444Q461 1127 475 1115T490 1083V841Q490 823 479 809T444 795H180Q136 795 136 841V1083Z" />
<glyph unicode="&lt;" glyph-name="less" horiz-adv-x="891" d="M594 1188Q605 1199 624 1199Q644 1199 657 1186L817 1026Q824 1019 827 1011T832 995Q830 988 828 980T819 964L492 635L819 306Q832 289 832 275Q832 256 816 240L652 80Q640 66 624 66Q607 66
593 80L70 605Q55 620 55 634Q55 650 70 665L594 1188Z" />
<glyph unicode="=" glyph-name="equal" horiz-adv-x="1100" d="M167 493Q167 537 211 537H893Q911 537 924 526T937 493V290Q937 275 925 259T893 242H211Q167 242 167 290V493ZM167 911Q167 955 211 955H893Q911 955 924 944T937 911V708Q937 693 925 677T893
660H211Q167 660 167 708V911Z" />
<glyph unicode="&gt;" glyph-name="greater" horiz-adv-x="891" d="M229 1166Q240 1177 252 1187T284 1197Q298 1197 310 1186T333 1165L835 664Q850 649 850 633Q850 619 835 604L312 79Q298 65 281 65Q264 65 253 79L89 239Q72 256 72 274Q72 289 85 305L413
634L85 963Q74 980 73 994Q74 1011 88 1025L229 1166Z" />
<glyph unicode="?" glyph-name="question" horiz-adv-x="1137" d="M739 655Q739 616 737 593T727 559T705 544T666 541H432Q410 541 398 556T386 590Q386 643 387 677T392 733T400 769T413 796Q441 841 476 874T547 934T617 985T678 1036T721 1098T737 1180Q737
1212 723 1242T686 1295T631 1331T565 1345Q531 1345 500 1331T445 1293T407 1238T393 1174V1151Q393 1134 381 1127T351 1117T313 1116T276 1117H103Q78 1117 69 1130T59 1158V1191Q59 1296 100 1383T211 1534T372 1632T564 1667Q667 1667 758 1630T917 1528T1025
1373T1065 1178Q1065 1083 1041 1020T981 913T902 842T824 787T763 730T739 655ZM388 288Q388 308 399 320T432 332H696Q713 332 727 320T742 288V46Q742 28 731 14T696 0H432Q388 0 388 46V288Z" />
<glyph unicode="@" glyph-name="at" horiz-adv-x="1697" d="M1205 336Q1133 276 1044 240T854 204Q753 204 666 240T506 336H1205ZM465 376Q403 446 369 535T335 725Q335 821 365 903T452 1055H1142L465 376ZM504 1113Q575 1176 664 1211T854 1247Q955 1247 1043
1211T1199 1113H504ZM1373 725Q1373 629 1343 546T1257 392H564L1241 1076Q1307 994 1340 908T1373 725ZM1022 120Q981 109 940 103T854 97Q765 97 684 120T532 185T406 285T309 412T247 561T225 725Q225 814 248 896T313 1048T413 1175T541 1272T690 1334T854
1356Q990 1356 1105 1304T1304 1165T1435 963T1482 725Q1482 612 1446 514T1348 338T1202 205T1022 120ZM1006 1282Q972 1293 934 1298T854 1304Q771 1304 696 1283T557 1223T442 1130T354 1012T298 875T278 725Q278 647 298 574T355 437T444 319T560 227T698 167T854
145Q973 145 1078 190T1262 314T1386 498T1432 725Q1432 831 1398 922T1306 1086T1171 1208T1006 1282ZM165 328L197 274L169 257L112 353L125 360Q134 366 141 364L240 354L209 407L237 423L292 328L279 321Q273 319 272 319Q269 317 264 317L165 328ZM252 154L191
227L300 319L362 245L337 225L296 271L281 257L312 221L287 199L256 236L237 222L276 176L252 154ZM347 211L369 236L455 163L435 139L404 165L333 80L308 102L378 185L347 211ZM487 145L510 129L491 -23L470 -12Q469 -9 466 -8Q463 -5 463 -3Q461 1 461 3V9L463
26L416 54L402 44Q401 43 400 43T397 42H391Q389 41 388 41T385 42Q383 43 381 43T378 44L360 55L487 145ZM474 97Q472 95 472 95Q468 93 469 93Q468 91 468 91Q468 90 467 90L446 75L468 61L470 88Q470 89 471 89T472 91Q472 93 472 93T473 94Q473 95 473 95T474
97ZM621 18L608 -13L561 6L543 -43L510 -30L563 101L650 67L640 37L582 58L574 37L621 18ZM632 -3Q633 5 638 16Q644 22 649 30Q652 34 655 37T662 43Q667 46 671 47T680 51Q684 53 689 53T699 55Q704 55 708 55T718 53Q723 51 727 50T736 47Q746 42 752 37Q756
33 759 30T764 23Q771 15 772 5Q774 0 775 -4T777 -13Q777 -18 777 -22T776 -32Q775 -42 769 -51Q766 -55 764 -58T758 -66Q754 -73 745 -78Q740 -80 736 -82T727 -86Q722 -88 718 -89T709 -90Q704 -90 700 -90T688 -88Q683 -87 680 -86T671 -83Q667 -81 663 -79T655
-72Q651 -69 649 -65T643 -58Q641 -54 639 -50T634 -42Q632 -30 630 -23Q630 -18 630 -13T632 -3ZM666 -10Q665 -19 666 -26Q667 -29 668 -32T671 -40Q675 -46 681 -51Q684 -53 688 -54T697 -56Q703 -59 711 -56Q720 -55 725 -52Q732 -46 736 -40Q738 -36 740 -33T743
-26Q745 -18 743 -9Q742 -4 736 4Q734 8 732 10T726 16Q722 18 719 19T711 22Q703 24 697 22Q692 20 689 19T681 16Q679 14 677 11T672 4Q668 0 666 -10ZM917 -103L887 -104L822 -9L823 -104L789 -105L787 38H802H815Q822 38 824 37Q828 34 829 32L879 -39Q880
-40 880 -41T881 -43Q881 -45 882 -45T883 -47Q883 -51 884 -52L881 39H916L917 -103ZM933 8L927 41L1039 61L1045 30L1006 22L1027 -85L994 -91L974 16L933 8ZM1102 51Q1098 51 1096 49Q1093 49 1093 47Q1091 43 1091 43Q1091 42 1092 41Q1092 38 1095 37Q1096
37 1096 36T1099 35H1109H1119Q1124 35 1128 35T1137 34Q1141 32 1143 32T1150 29Q1157 24 1162 20Q1167 16 1169 6Q1173 -3 1172 -12Q1172 -18 1170 -21T1166 -30Q1164 -34 1162 -37T1154 -46Q1149 -48 1145 -50T1136 -55Q1132 -56 1128 -57T1119 -58Q1113 -60
1104 -56Q1096 -55 1089 -51Q1086 -49 1083 -47T1078 -40L1085 -30Q1087 -28 1089 -27Q1092 -24 1093 -24Q1096 -23 1103 -23Q1105 -23 1106 -23T1110 -24Q1112 -24 1113 -25T1117 -26Q1122 -26 1124 -24Q1127 -24 1128 -24T1131 -22L1136 -17Q1138 -15 1138 -10Q1138
-10 1138 -4L1135 -1Q1134 0 1130 0Q1128 2 1126 2T1122 2H1112Q1108 2 1105 2T1097 3Q1091 3 1083 5Q1079 7 1076 9T1070 13Q1065 18 1060 28Q1058 33 1058 37T1058 45Q1059 50 1060 53T1064 61Q1066 66 1068 68T1075 74Q1082 79 1090 82Q1092 83 1095 84T1103
85Q1105 85 1108 84T1115 83Q1117 82 1120 82T1128 79Q1130 77 1132 77T1137 74L1131 63Q1130 60 1128 56Q1125 55 1123 55T1119 54Q1118 53 1115 53H1110H1105Q1103 53 1102 51ZM1192 -10Q1192 -8 1191 -7T1190 -3Q1190 2 1192 4Q1192 6 1195 11Q1196 14 1201
16Q1204 17 1205 17T1209 18Q1211 18 1212 18T1216 17Q1221 15 1222 13Q1225 12 1227 6Q1231 2 1231 -1Q1231 -6 1229 -8Q1227 -10 1227 -11T1225 -14Q1224 -16 1223 -17T1219 -20Q1213 -22 1212 -22Q1207 -22 1205 -21Q1200 -21 1196 -17Q1193 -15 1192 -10ZM1244
76Q1246 70 1255 65Q1258 62 1261 61T1269 58Q1275 56 1284 58Q1288 58 1291 60T1298 64Q1301 66 1303 68T1308 73L1314 82Q1316 89 1321 93Q1323 95 1325 95T1329 96H1337L1349 94Q1348 89 1347 85T1344 76Q1343 71 1338 61Q1335 53 1328 48Q1321 41 1317 38Q1312
35 1308 33T1298 29Q1290 25 1280 25Q1275 24 1271 24T1261 26Q1258 28 1254 28T1244 31Q1240 34 1236 36T1229 43Q1225 46 1222 49T1215 56Q1213 61 1211 65T1207 75Q1206 79 1206 83T1203 93Q1203 98 1203 102T1205 111Q1206 120 1210 129Q1213 133 1215 137T1221
145Q1224 149 1228 152T1237 158Q1244 162 1250 165Q1254 167 1257 167T1266 170H1283Q1288 170 1292 169T1299 167L1298 154Q1296 150 1295 147Q1293 145 1292 144T1289 141Q1281 137 1276 137Q1269 137 1265 135Q1260 134 1253 131Q1246 127 1243 120Q1238 112
1238 106Q1236 98 1238 90Q1240 80 1244 76ZM1329 132Q1325 136 1323 139T1317 148Q1315 153 1314 157T1311 166Q1309 171 1309 175T1309 184Q1309 189 1309 193T1311 203Q1312 208 1314 212T1318 221Q1321 224 1323 228T1330 235Q1334 239 1338 242T1346 248Q1350
250 1354 251T1363 254Q1368 256 1372 256T1381 256Q1386 256 1390 256T1400 254Q1405 253 1409 252T1418 248Q1423 245 1426 242T1434 235Q1437 231 1439 228T1445 219Q1447 215 1448 211T1452 202Q1453 197 1453 193T1453 183Q1453 176 1451 166Q1450 161 1448
157T1444 148Q1440 140 1432 132Q1428 128 1425 126T1417 121Q1412 119 1408 117T1399 114Q1390 111 1380 111Q1371 111 1362 114Q1357 115 1353 117T1344 121Q1341 123 1337 126T1329 132ZM1353 156Q1356 153 1359 151T1367 147Q1373 145 1381 145Q1392 145 1396
147Q1400 148 1403 150T1409 156Q1417 162 1418 168Q1421 175 1421 183Q1421 190 1418 198Q1417 205 1409 211Q1403 218 1396 221Q1390 224 1381 224Q1377 224 1374 224T1367 222Q1363 220 1360 218T1353 212Q1348 208 1344 199Q1342 196 1342 192T1342 184Q1342
174 1344 170Q1346 166 1348 163T1353 156ZM1584 332L1566 303L1508 340L1549 279L1534 255L1463 268L1518 231L1499 203L1380 281L1393 300Q1396 305 1402 308Q1405 309 1408 309T1414 309L1498 296L1451 366Q1449 370 1448 372T1447 378Q1447 382 1448 384T1451
390L1464 409L1584 332ZM202 939L195 920L62 970L80 1017Q83 1027 88 1032Q95 1041 103 1043Q107 1045 110 1046T119 1047Q124 1047 128 1047T137 1045Q146 1041 151 1034Q156 1032 157 1029T161 1021Q163 1017 164 1013T166 1005Q166 996 163 987L153 957L202
939ZM145 994Q145 996 145 998T146 1003Q146 1006 146 1008T144 1013Q143 1015 142 1017T138 1021Q135 1024 131 1026Q128 1027 125 1027T120 1027Q117 1027 115 1027T111 1025Q109 1023 107 1023T103 1020Q99 1014 98 1011L87 981L134 964L145 994ZM274 1094L232
1017L108 1085L150 1162L167 1152L134 1093L170 1073L197 1122L214 1113L187 1065L224 1043L257 1103L274 1094ZM294 1120L282 1104L169 1191L199 1232Q203 1234 206 1237T212 1242Q216 1245 219 1246T227 1248Q231 1248 235 1248T243 1247Q252 1245 258 1239Q261
1237 263 1235T267 1229Q269 1227 270 1224T273 1219Q274 1214 274 1211T274 1205Q274 1199 272 1193L347 1191L340 1180Q337 1176 332 1174Q329 1173 327 1172T323 1171L260 1173L247 1156L294 1120ZM196 1195L231 1168L250 1194Q252 1195 252 1197T255 1201V1209Q255
1211 254 1213T252 1218Q248 1222 246 1223Q242 1227 238 1227Q236 1228 230 1228Q228 1227 226 1227T222 1226Q218 1224 216 1220L196 1195ZM306 1311Q302 1310 300 1310T296 1309Q294 1308 291 1305Q287 1302 285 1298Q282 1295 282 1290V1283Q283 1280 286 1277Q289
1273 292 1272H298Q301 1272 307 1274Q310 1276 312 1276T319 1279Q321 1280 322 1281T325 1282Q327 1283 333 1285Q337 1285 340 1288Q341 1288 342 1288T346 1289Q366 1291 378 1277Q388 1271 389 1261Q390 1256 390 1253T391 1245Q390 1240 389 1236T386 1227Q384
1222 381 1219T375 1212Q362 1200 344 1197H338Q335 1199 332 1199Q330 1199 329 1199T326 1200Q325 1200 325 1200T324 1201L325 1206Q326 1208 326 1209T328 1213Q336 1218 340 1218H343Q346 1218 352 1220Q356 1221 362 1226Q364 1228 364 1230T367 1234Q370
1238 370 1245Q372 1249 370 1254Q370 1257 369 1259T365 1263Q362 1268 356 1268Q351 1271 347 1268Q341 1268 338 1265Q330 1263 327 1260Q323 1259 313 1255Q309 1253 305 1253T299 1252Q289 1252 285 1253Q282 1255 278 1257T272 1263Q265 1269 263 1277Q261
1286 262 1291Q264 1302 267 1306Q269 1311 275 1319Q281 1324 286 1325Q290 1329 296 1329Q306 1331 308 1331Q315 1331 318 1330L317 1324Q317 1321 313 1315Q310 1311 306 1311ZM366 1306Q364 1310 362 1314T358 1324Q353 1334 353 1342Q352 1347 352 1351T353
1361Q355 1366 356 1370T360 1379Q362 1384 364 1387T370 1395Q376 1401 385 1407Q393 1414 402 1415Q411 1419 421 1419Q430 1422 440 1419Q445 1418 448 1417T456 1413Q461 1411 465 1409T473 1403Q477 1400 479 1397T486 1388Q488 1384 490 1380T494 1371Q498
1362 498 1353Q500 1343 498 1334Q497 1329 496 1325T492 1316Q487 1306 481 1300Q477 1297 475 1294T467 1288Q453 1278 441 1277Q426 1273 412 1277Q405 1278 399 1280T386 1286Q374 1294 366 1306ZM383 1318Q387 1308 397 1303Q405 1298 416 1296Q426 1293 437
1296Q447 1298 455 1304Q466 1310 470 1319Q473 1324 474 1328T478 1337Q479 1348 478 1359Q476 1363 475 1367T469 1377Q464 1386 454 1392Q444 1399 436 1400Q425 1402 416 1400Q405 1398 396 1391Q387 1385 381 1376Q378 1371 377 1367T373 1357Q371 1348 373
1337Q375 1332 376 1328T383 1318ZM552 1340L533 1332L479 1464L493 1470Q497 1472 501 1472Q506 1472 507 1470L616 1400L617 1399Q618 1397 618 1396Q620 1396 620 1396T621 1395L575 1504L594 1511L648 1380L634 1374Q630 1373 626 1373Q621 1373 618 1374L512
1444Q510 1444 510 1444T508 1445Q508 1447 507 1448Q506 1448 506 1449V1451L552 1340ZM681 1533L700 1536L788 1409L777 1407Q775 1406 773 1406T769 1407Q764 1408 762 1413L748 1433L677 1419L672 1395Q670 1390 667 1387Q666 1385 664 1384T659 1383L648 1381L681
1533ZM695 1504L681 1440L736 1451L699 1504Q697 1506 697 1508T695 1512V1508V1504ZM789 1406L784 1549L803 1550L808 1427L871 1430L872 1409L789 1406ZM950 1458Q948 1450 950 1443Q951 1440 952 1437T956 1431Q958 1428 960 1426T965 1421Q969 1419 972 1417T980
1414Q990 1414 994 1415Q999 1415 1002 1417T1008 1421Q1014 1425 1018 1431Q1020 1434 1021 1437T1025 1445L1039 1530L1059 1528L1042 1441Q1041 1438 1041 1435T1038 1427Q1036 1423 1035 1420T1031 1414Q1028 1412 1025 1410T1019 1405Q1014 1401 1007 1399Q1003
1397 999 1397T992 1395Q982 1395 977 1396Q972 1396 969 1397T962 1401Q958 1402 956 1404T950 1408Q943 1413 939 1419Q937 1424 933 1432Q930 1439 930 1447Q930 1457 931 1462L945 1547L965 1543L950 1458ZM1135 1476Q1134 1478 1133 1479T1130 1483Q1128 1484
1126 1484T1122 1486Q1119 1488 1113 1488H1106Q1103 1485 1099 1484Q1096 1481 1096 1478Q1093 1473 1095 1470Q1095 1466 1097 1464Q1098 1462 1099 1461T1103 1457Q1106 1454 1112 1450Q1114 1448 1115 1447T1118 1444Q1120 1443 1121 1442T1124 1439Q1125 1438
1126 1437T1130 1434Q1131 1432 1131 1431T1134 1428Q1144 1413 1138 1395Q1136 1390 1134 1386T1129 1379Q1124 1376 1121 1374T1113 1370Q1105 1366 1096 1366Q1091 1366 1087 1366T1078 1368Q1060 1376 1051 1391Q1051 1392 1050 1393T1047 1396Q1047 1398 1047
1399T1046 1402Q1045 1403 1045 1406V1409L1051 1411Q1055 1411 1058 1409Q1064 1408 1067 1402V1401Q1069 1398 1070 1397T1073 1393Q1077 1391 1079 1390T1084 1387Q1086 1387 1088 1387T1093 1386Q1096 1386 1099 1386T1104 1387Q1111 1389 1113 1392Q1118 1397
1119 1401Q1122 1407 1119 1411Q1119 1413 1118 1415T1116 1419Q1114 1421 1113 1423T1109 1427Q1107 1428 1105 1429T1099 1433Q1097 1436 1094 1438T1089 1444Q1086 1446 1084 1449T1080 1456Q1078 1458 1077 1461T1075 1467Q1073 1474 1078 1484Q1079 1492 1085
1498Q1092 1504 1098 1505Q1103 1507 1106 1507T1113 1508Q1117 1508 1121 1507T1130 1505Q1134 1504 1139 1499Q1144 1495 1148 1490Q1150 1488 1152 1486T1155 1482Q1156 1479 1156 1477T1158 1473L1152 1470Q1147 1468 1142 1470Q1137 1474 1135 1476ZM1209
1310L1131 1351L1195 1478L1273 1437L1265 1419L1205 1451L1186 1414L1235 1389L1225 1371L1176 1397L1157 1360L1218 1328L1209 1310ZM1298 1338Q1305 1348 1314 1351Q1317 1354 1321 1356T1329 1360Q1334 1362 1338 1362T1348 1363Q1353 1363 1357 1363T1367
1362Q1376 1360 1385 1356Q1392 1353 1400 1345Q1404 1342 1408 1339T1414 1330Q1420 1323 1421 1314Q1425 1306 1425 1296Q1425 1291 1425 1287T1424 1277Q1422 1272 1421 1268T1418 1259Q1413 1249 1407 1244Q1403 1239 1400 1236T1393 1229Q1388 1227 1384 1225T1375
1222Q1366 1219 1357 1219Q1352 1219 1348 1219T1338 1220Q1335 1221 1331 1222T1321 1226Q1316 1228 1313 1230T1304 1235Q1299 1242 1295 1247T1287 1259Q1285 1266 1283 1272T1280 1286Q1280 1302 1284 1314Q1289 1329 1298 1338ZM1314 1326Q1305 1317 1302
1308Q1300 1303 1300 1298T1299 1288Q1299 1282 1300 1278T1304 1268Q1308 1263 1310 1259T1317 1251Q1322 1247 1326 1245T1336 1240Q1347 1237 1355 1238Q1368 1238 1375 1244Q1380 1246 1384 1249T1393 1255Q1401 1264 1402 1274Q1407 1283 1405 1294Q1405 1299
1404 1304T1400 1314Q1398 1319 1395 1322T1388 1330Q1384 1334 1379 1336T1369 1341Q1364 1343 1359 1343T1349 1344Q1344 1344 1339 1342T1329 1338Q1320 1333 1314 1326ZM1376 1168L1364 1182L1478 1268L1489 1255Q1491 1251 1492 1248V1240L1450 1120Q1450
1119 1450 1119T1449 1118Q1449 1117 1448 1117T1447 1116L1446 1114L1541 1184L1553 1169L1439 1084L1430 1096Q1427 1098 1425 1103Q1425 1108 1426 1110L1467 1232Q1467 1233 1468 1233Q1469 1233 1469 1234L1470 1235Q1471 1237 1472 1238L1376 1168ZM1446
1067L1573 1132L1581 1116L1472 1059L1501 1005L1483 995L1446 1067ZM1498 954L1491 972L1548 994Q1550 995 1550 995Q1554 997 1554 997Q1554 999 1554 999T1555 1001Q1558 1001 1558 1003L1605 1076L1608 1064Q1610 1060 1610 1057T1611 1052Q1610 1050 1609
1048T1607 1043L1576 996L1574 994L1573 993H1575Q1575 994 1578 993L1632 977Q1634 976 1636 975T1641 972Q1645 970 1646 964L1651 951L1569 975Q1567 975 1566 976H1562H1558Q1555 976 1554 975L1498 954Z" />
<glyph unicode="A" glyph-name="A" horiz-adv-x="1531" d="M586 1446Q587 1452 592 1459T606 1472T623 1481T640 1485H896Q913 1485 925 1475T943 1456L968 1399L1493 45Q1501 25 1490 13T1452 0H1165Q1142 0 1130 8T1110 37Q1090 88 1071 138T1033 240H502Q483
189 464 139T425 37Q412 0 374 0H79Q60 0 48 10T43 40L586 1446ZM768 1018Q749 967 730 908T691 789T653 671T614 561H921L768 1018Z" />
<glyph unicode="B" glyph-name="B" horiz-adv-x="1410" d="M160 1439Q160 1460 171 1472T204 1485H868Q956 1485 1034 1452T1170 1360T1263 1223T1297 1054Q1297 979 1274 915T1207 799Q1279 733 1321 642T1363 449Q1363 358 1328 277T1234 134T1095 36T927 0H204Q184
0 172 10T160 43V1439ZM966 464Q966 494 955 524T923 577T874 616T812 631H548V297H812Q845 297 873 311T922 348T954 402T966 464ZM913 1045Q913 1075 902 1101T871 1147T823 1178T762 1190H548V900H759Q793 900 821 910T870 940T901 986T913 1045Z" />
<glyph unicode="C" glyph-name="C" horiz-adv-x="1409" d="M1294 1377Q1311 1367 1319 1351T1316 1313L1147 1073Q1136 1056 1124 1054T1093 1062Q1044 1099 985 1119T860 1139Q778 1139 709 1108T590 1023T512 897T484 743Q484 661 512 590T590 465T709 380T860
349Q926 349 986 369T1095 427Q1113 438 1125 436T1149 418L1320 172Q1331 150 1323 135T1298 110Q1204 47 1096 13T867 -22Q761 -22 664 5T481 82T327 201T207 355T130 537T103 741Q103 847 130 944T207 1127T326 1283T481 1402T663 1479T867 1507Q987 1507 1093
1474T1294 1377Z" />
<glyph unicode="D" glyph-name="D" horiz-adv-x="1547" d="M1447 741Q1447 635 1420 540T1343 362T1224 212T1070 98T887 26T684 0H191Q173 0 159 8T145 42V1439Q145 1460 156 1473T191 1486H684Q789 1486 886 1460T1068 1386T1223 1271T1342 1121T1419 942T1447
741ZM532 1127V358H616Q639 358 661 359T705 363Q780 369 845 399T958 479T1034 596T1062 742Q1062 826 1031 896T945 1018T819 1098T664 1127H532Z" />
<glyph unicode="E" glyph-name="E" horiz-adv-x="1350" d="M161 1439Q161 1460 172 1472T205 1485H1198Q1220 1485 1232 1472T1244 1437V1189Q1244 1172 1232 1157T1197 1141H549V894H1049Q1068 894 1080 885T1093 855V639Q1093 625 1082 612T1050 599H549V344H1221Q1266
344 1266 298V46Q1266 36 1258 28Q1254 0 1217 0H205Q185 0 173 10T161 43V1439Z" />
<glyph unicode="F" glyph-name="F" horiz-adv-x="1297" d="M169 1439Q169 1460 180 1472T208 1485H1165Q1188 1485 1199 1472T1211 1437V1189Q1211 1172 1199 1157T1164 1141H556V832H1005Q1024 832 1037 822T1050 788V549Q1050 532 1039 517T1007 501H556V43Q556
0 510 0H205Q169 5 169 42V1439Z" />
<glyph unicode="G" glyph-name="G" horiz-adv-x="1502" d="M1098 1066Q1047 1102 989 1122T865 1142Q782 1142 713 1111T595 1025T517 899T489 744Q489 662 517 590T594 465T713 380T865 349Q900 349 934 354T1008 367V629Q1008 648 1019 660T1052 673H1324Q1339
673 1356 661T1373 629V145Q1373 118 1344 101Q1297 69 1240 46T1121 8T996 -14T872 -22Q766 -22 669 5T486 82T332 201T212 355T135 537T108 741Q108 847 135 944T212 1127T331 1283T486 1402T668 1479T872 1507Q992 1507 1098 1474T1299 1377Q1316 1367 1325
1351T1321 1313L1159 1079Q1146 1063 1133 1058T1098 1066Z" />
<glyph unicode="H" glyph-name="H" horiz-adv-x="1602" d="M165 1441Q166 1458 177 1471T208 1485H505Q520 1485 536 1473T552 1441V967H1049V1441Q1049 1459 1061 1472T1094 1485H1387Q1407 1485 1422 1475T1437 1443V44Q1437 22 1424 11T1390 0H1094Q1074 0
1062 11T1049 44V612H552V44Q552 23 539 12T502 0H208Q166 0 165 39V1441Z" />
<glyph unicode="I" glyph-name="I" horiz-adv-x="713" d="M165 1441Q165 1459 176 1472T209 1485H503Q518 1485 535 1473T552 1441V44Q552 0 503 0H209Q165 0 165 44V1441Z" />
<glyph unicode="J" glyph-name="J" horiz-adv-x="903" d="M350 1445Q350 1482 389 1485H684Q738 1485 738 1433V63Q738 -36 699 -122T592 -273T437 -375T250 -412Q192 -412 136 -399T30 -361T-64 -298T-141 -211Q-144 -210 -144 -195Q-144 -169 -128 -157L46 6Q54
13 63 17T80 22Q95 22 108 11T138 -13T177 -38T230 -49Q253 -49 275 -40T313 -16T340 19T350 63V1445Z" />
<glyph unicode="K" glyph-name="K" horiz-adv-x="1529" d="M159 1441Q159 1459 170 1472T203 1485H499Q514 1485 530 1473T547 1441V896Q656 1036 761 1172T974 1448Q985 1465 1002 1475T1037 1486H1417Q1441 1486 1441 1471Q1441 1461 1430 1447L959 826L1480
42Q1491 25 1491 15Q1491 0 1469 0H1091Q1074 0 1058 10T1030 37Q977 109 934 175T849 306T766 439T674 580L547 434V44Q547 0 499 0H204Q159 0 159 44V1441Z" />
<glyph unicode="L" glyph-name="L" horiz-adv-x="1179" d="M126 1442Q126 1460 138 1473T171 1486H467Q484 1486 498 1474T513 1442V354H1063Q1081 354 1094 342T1107 309V46Q1107 29 1096 15T1063 0H170Q126 0 126 44V1442Z" />
<glyph unicode="M" glyph-name="M" horiz-adv-x="1921" d="M244 1441Q246 1459 258 1472T292 1485H638Q675 1485 686 1447L958 539L1232 1447Q1246 1485 1283 1485H1625Q1643 1485 1657 1473T1674 1441Q1709 1089 1745 743T1817 44V39Q1817 0 1773 0H1490Q1444
0 1442 44L1355 817L1130 39Q1128 29 1116 15T1091 1H828Q816 1 803 14T788 39L563 815L476 44Q474 0 427 0H144Q101 0 101 44L244 1441Z" />
<glyph unicode="N" glyph-name="N" horiz-adv-x="1639" d="M165 1441Q165 1459 176 1472T209 1485H536Q550 1485 565 1478T591 1454Q718 1249 843 1050T1096 646V1447Q1100 1465 1112 1475T1140 1485H1425Q1446 1485 1460 1474T1474 1441V39Q1474 19 1462 10T1429
0H1110Q1097 0 1087 9T1066 33Q933 253 803 468T539 903V44Q539 22 529 11T493 0H209Q186 0 176 12T165 43V1441Z" />
<glyph unicode="O" glyph-name="O" horiz-adv-x="1705" d="M478 742Q478 659 506 587T584 462T704 378T856 347Q939 347 1008 377T1128 461T1207 587T1235 742Q1235 824 1207 896T1129 1023T1009 1108T856 1139Q773 1139 704 1108T585 1023T506 897T478 742ZM92
741Q92 847 119 944T196 1127T315 1283T470 1402T652 1479T856 1507Q961 1507 1059 1480T1242 1403T1397 1283T1516 1128T1593 945T1621 741Q1621 635 1594 538T1517 356T1397 202T1242 82T1059 5T856 -22Q750 -22 653 5T470 82T316 201T196 355T119 537T92 741Z"
/>
<glyph unicode="P" glyph-name="P" horiz-adv-x="1343" d="M142 1439Q142 1460 153 1472T186 1485H825Q894 1485 955 1466T1067 1414T1159 1334T1228 1233T1272 1120T1287 999Q1287 909 1255 823T1162 670T1018 562T832 519H529V43Q529 0 483 0H186Q166 0 154
10T142 43V1439ZM895 1001Q895 1031 885 1061T854 1114T806 1153T741 1168H529V834H741Q777 834 806 848T854 886T884 939T895 1001Z" />
<glyph unicode="Q" glyph-name="Q" horiz-adv-x="1705" d="M92 741Q92 847 119 944T196 1127T315 1283T470 1402T652 1479T856 1507Q961 1507 1059 1480T1242 1403T1397 1283T1516 1128T1593 945T1621 741Q1621 606 1578 484T1459 265T1277 99T1046 1V-270Q1046
-314 998 -314H703Q659 -314 659 -270V3Q535 33 431 101T252 267T134 485T92 741ZM478 742Q478 659 506 587T584 462T704 378T856 347Q939 347 1008 377T1128 461T1207 587T1235 742Q1235 824 1207 896T1129 1023T1009 1108T856 1139Q773 1139 704 1108T585 1023T506
897T478 742Z" />
<glyph unicode="R" glyph-name="R" horiz-adv-x="1407" d="M163 1439Q163 1460 174 1472T207 1485H853Q956 1485 1046 1447T1203 1342T1308 1188T1347 999Q1347 931 1329 870T1277 755T1199 658T1099 583L1356 99Q1363 85 1374 66T1385 33Q1385 17 1375 9T1346
0H1003Q986 0 973 10T955 37L712 494H550V43Q550 0 504 0H207Q187 0 175 10T163 43V1439ZM946 995Q946 1025 935 1055T904 1110T856 1152T794 1174Q766 1176 742 1177T688 1179H550V812H734Q752 812 766 813T797 816Q832 820 860 836T907 877T936 932T946 995Z"
/>
<glyph unicode="S" glyph-name="S" horiz-adv-x="1312" d="M348 479Q365 465 391 442T452 395Q503 361 553 342T658 323Q709 323 743 334T798 365T826 409T835 462Q835 493 812 517T754 561T683 593T619 616Q499 658 409 706T259 814T169 945T139 1105Q139 1198
176 1274T283 1404T451 1487T670 1517Q761 1517 844 1497T1009 1431Q1043 1411 1073 1390T1127 1348T1163 1310T1177 1279Q1177 1266 1171 1255T1151 1230L998 1067Q981 1050 964 1050Q950 1050 939 1058T913 1078L904 1086Q884 1103 860 1121T807 1153T748 1177T685
1187Q652 1187 623 1182T572 1164T537 1133T524 1085Q524 1057 538 1037T580 999T649 966T746 932Q852 897 941 859T1096 768T1197 642T1234 465Q1234 355 1189 266T1066 113T881 16T653 -19Q538 -19 427 22T220 132Q180 161 153 189T109 234L106 237Q105 239 104
239T102 241Q101 243 100 243T98 245Q75 270 75 285Q75 302 98 323L271 488Q292 503 305 503Q314 503 324 497T348 479Z" />
<glyph unicode="T" glyph-name="T" horiz-adv-x="1332" d="M80 1441Q80 1461 93 1473T127 1485H1204Q1222 1485 1236 1474T1252 1441V1192Q1252 1174 1240 1158T1204 1141H859V47Q859 29 846 15T812 0H518Q501 0 486 13T471 47V1141H127Q107 1141 94 1154T80 1192V1441Z" />
<glyph unicode="U" glyph-name="U" horiz-adv-x="1550" d="M544 593Q544 519 564 468T618 384T696 336T789 321Q839 321 883 338T961 390T1014 476T1034 593V1441Q1034 1459 1046 1472T1080 1485H1372Q1395 1485 1408 1472T1421 1441V598Q1421 423 1370 304T1231
113T1030 9T789 -23Q663 -23 548 9T346 115T208 307T156 598V1441Q156 1458 167 1471T196 1485H496Q511 1485 527 1473T544 1441V593Z" />
<glyph unicode="V" glyph-name="V" horiz-adv-x="1470" d="M570 21Q559 39 551 58T534 97L21 1440Q21 1445 20 1449T18 1457Q18 1485 55 1485H377Q415 1485 429 1447L734 537Q775 651 812 764T886 992T960 1219T1039 1447Q1053 1485 1094 1485H1409Q1432 1485
1441 1477T1451 1454Q1451 1446 1450 1443V1440L934 97Q929 83 922 66T906 35T885 10T858 0H611Q580 0 570 21Z" />
<glyph unicode="W" glyph-name="W" horiz-adv-x="2156" d="M571 21Q561 38 552 56T536 92Q407 432 279 766T22 1440Q22 1445 21 1449T19 1457Q19 1485 56 1485H378Q416 1485 430 1447L736 536L1019 1447Q1033 1485 1074 1485H1399Q1422 1485 1431 1477T1441 1454Q1441
1446 1440 1443V1440L1262 930L1396 537L1720 1447Q1734 1485 1775 1485H2090Q2113 1485 2122 1477T2132 1454Q2132 1446 2131 1443V1440Q2063 1264 1992 1089T1850 739T1708 389T1570 38Q1566 27 1552 14T1518 0H1515H1273Q1251 0 1240 8T1223 31L1065 447Q1031
356 998 269T932 90Q927 76 921 61T905 32T885 9T858 0H855H613Q581 0 571 21Z" />
<glyph unicode="X" glyph-name="X" horiz-adv-x="1454" d="M16 26Q24 41 32 56T52 88L502 760Q387 933 275 1102T47 1444Q41 1452 38 1459T33 1474Q35 1482 44 1482T64 1486H412Q449 1486 470 1448L715 1080L963 1448Q984 1486 1021 1486H1335Q1343 1486 1354
1486T1374 1486T1391 1482T1398 1473Q1398 1461 1387 1447L927 760L1396 60Q1406 46 1411 35T1416 15Q1416 0 1398 0H1040Q1023 0 1009 10T987 37L715 440L446 37Q438 20 424 10T393 0H52H34Q26 0 20 4T14 17Q14 22 16 26Z" />
<glyph unicode="Y" glyph-name="Y" horiz-adv-x="1410" d="M706 937L948 1454Q954 1466 958 1471T966 1479T974 1482T985 1485H1370Q1377 1485 1381 1481T1386 1470Q1386 1459 1372 1445L898 606V47Q898 0 852 0H552Q532 0 521 12T510 47V608L37 1445Q24 1458
24 1470Q24 1476 28 1480T39 1485H424Q431 1483 435 1483T443 1480T451 1472T462 1454L706 937Z" />
<glyph unicode="Z" glyph-name="Z" horiz-adv-x="1432" d="M108 1441Q108 1461 120 1473T155 1485H1316Q1335 1485 1348 1474T1362 1441V1239Q1362 1231 1362 1224T1356 1206L632 343H1319Q1338 343 1351 332T1364 298V49Q1364 32 1352 16T1319 0H158Q138 0 125
13T111 49V264Q111 280 118 290L840 1141H155Q133 1141 121 1152T108 1190V1441Z" />
<glyph unicode="[" glyph-name="bracketleft" horiz-adv-x="838" d="M160 1597Q160 1641 204 1641H638Q682 1638 682 1597V1359Q682 1338 669 1326T638 1313H517V-14H638Q656 -14 669 -26T682 -60V-298Q682 -339 638 -342H204Q160 -342 160 -298V1597Z" />
<glyph unicode="\" glyph-name="backslash" horiz-adv-x="1086" d="M31 1441Q29 1443 29 1446T27 1454Q27 1471 43 1478T79 1485H356Q381 1485 396 1472T420 1441L1052 44Q1053 26 1056 26Q1056 0 1014 0H715Q694 0 684 9T662 44L31 1441Z" />
<glyph unicode="]" glyph-name="bracketright" horiz-adv-x="838" d="M681 -298Q681 -342 637 -342H204Q160 -339 160 -298V-60Q160 -39 172 -27T204 -14H325V1313H204Q185 1313 173 1325T160 1359V1597Q160 1638 204 1641H637Q681 1641 681 1597V-298Z" />
<glyph unicode="^" glyph-name="asciicircum" horiz-adv-x="977" d="M458 1582Q473 1597 488 1597Q502 1597 517 1582L889 1212Q902 1199 902 1181Q902 1165 889 1153L761 1023Q743 1005 726 1005Q709 1005 695 1018L488 1227L279 1018Q262 1007 249 1007Q232
1007 218 1021L90 1148Q75 1160 75 1181Q75 1199 88 1212L458 1582Z" />
<glyph unicode="_" glyph-name="underscore" horiz-adv-x="1342" d="M165 229Q165 273 209 273H1131Q1149 273 1162 262T1175 229V48Q1175 41 1172 33T1163 17T1149 5T1131 0H209Q165 0 165 48V229Z" />
<glyph unicode="`" glyph-name="grave" horiz-adv-x="552" d="M469 1464Q471 1455 474 1442T477 1418T472 1399T451 1391H232Q213 1391 202 1401T178 1433L80 1648Q75 1659 73 1670T73 1691T83 1706T106 1712H364Q381 1712 396 1703T417 1670L469 1464Z" />
<glyph unicode="a" glyph-name="a" horiz-adv-x="1547" d="M1427 74Q1427 57 1421 42T1401 17Q1390 6 1375 3T1349 0H1152Q1131 0 1118 5T1097 21T1084 45T1072 77L1043 152Q1016 125 984 95T914 38T830 -5T734 -23Q643 -23 560 0T404 65T272 167T171 300T105
457T82 634Q82 773 133 892T272 1100T479 1239T734 1290Q796 1290 848 1272T942 1223T1019 1155T1081 1078L1120 1199Q1130 1224 1136 1239T1150 1262T1169 1272T1200 1275H1349Q1360 1275 1375 1272T1401 1258Q1415 1247 1421 1233T1427 1201V74ZM442 634Q442
568 462 511T521 411T612 345T731 320Q798 320 855 344T955 411T1022 510T1046 634Q1046 698 1022 756T956 858T856 927T731 953Q666 953 613 928T521 858T463 756T442 634Z" />
<glyph unicode="b" glyph-name="b" horiz-adv-x="1520" d="M475 77Q466 58 460 44T447 20T428 5T398 0H200Q120 0 120 77V1571Q120 1588 126 1602T143 1626T167 1641T194 1647H421Q459 1647 481 1625T503 1571V1115Q531 1145 563 1176T632 1232T715 1274T815 1290Q951
1290 1065 1240T1262 1101T1391 893T1438 634Q1438 496 1392 376T1263 168T1066 28T815 -23Q764 -23 719 -6T635 39T563 97T503 155L475 77ZM1078 634Q1078 698 1058 756T999 858T908 927T789 953Q723 953 666 928T566 858T500 756T475 634V620Q478 557 503 502T571
407T669 343T789 320Q855 320 908 344T999 411T1057 510T1078 634Z" />
<glyph unicode="c" glyph-name="c" horiz-adv-x="1235" d="M933 391Q947 401 959 403T979 406Q996 406 1010 399T1039 369L1151 200Q1156 192 1160 182T1165 166Q1165 143 1151 129T1119 103Q1037 46 940 12T733 -23Q643 -23 560 0T404 65T272 167T170 300T105
457T81 634Q81 726 104 811T170 968T272 1100T404 1202T559 1267T733 1290Q842 1290 934 1261T1108 1175L1105 1178Q1127 1165 1140 1148T1153 1104Q1153 1086 1141 1067L1052 916Q1024 867 984 867Q975 867 962 871T933 887Q889 916 839 934T731 953Q668 953 615
928T525 858T466 756T445 634Q445 568 466 511T524 411T615 345T731 320Q788 320 838 340T933 391Z" />
<glyph unicode="d" glyph-name="d" horiz-adv-x="1545" d="M1015 155Q988 128 956 97T884 39T800 -5T703 -23Q567 -23 453 28T256 167T127 376T80 634Q80 773 126 892T255 1100T452 1239T703 1290Q758 1290 803 1274T886 1233T955 1177T1015 1115V1572Q1015 1604
1034 1626T1093 1648H1318Q1331 1648 1345 1643T1372 1627T1391 1603T1399 1572V77Q1399 0 1318 0H1122Q1102 0 1091 5T1073 19T1059 43T1044 77L1015 155ZM440 634Q440 568 460 511T519 411T610 345T729 320Q793 320 849 343T948 406T1015 502T1044 620V634Q1044
698 1020 756T954 858T854 927T729 953Q664 953 611 928T519 858T461 756T440 634Z" />
<glyph unicode="e" glyph-name="e" horiz-adv-x="1416" d="M1184 152Q1096 71 986 26T753 -20Q616 -20 494 30T280 168T134 377T80 638Q80 726 101 808T162 963T258 1095T385 1199T537 1266T710 1290Q793 1290 871 1268T1017 1206T1143 1110T1241 988T1304 846T1327
690Q1327 638 1326 605T1310 553T1264 526T1168 518H448Q458 454 488 411T559 343T644 306T729 295Q765 295 803 302T876 322T941 351T989 386Q1005 399 1016 405T1041 412Q1054 412 1067 403T1098 377L1204 257Q1215 244 1218 234T1221 212Q1221 192 1210 178T1184
152ZM703 985Q664 985 628 970T559 928T502 869T460 802H971Q950 841 926 874T870 932T798 971T703 985Z" />
<glyph unicode="f" glyph-name="f" horiz-adv-x="867" d="M241 1252Q241 1345 281 1427T388 1570T542 1667T724 1703H744Q778 1703 796 1683T815 1626V1435Q815 1398 796 1374T744 1349H724Q703 1349 684 1342T650 1321T626 1291T617 1252V1137H774Q808 1137 826
1119T845 1060V877Q845 834 827 814T774 794H617V77Q617 39 592 20T536 0H320Q284 0 263 22T241 77V794H138Q103 794 82 814T60 877V1060Q60 1100 81 1118T138 1137H241V1252Z" />
<glyph unicode="g" glyph-name="g" horiz-adv-x="1537" d="M1040 44Q1051 78 1051 121T1050 210Q1021 179 991 145T925 81T842 32T735 13Q600 13 485 59T286 187T155 385T108 638Q108 775 155 894T286 1102T485 1241T735 1292Q797 1292 846 1273T936 1224T1010
1157T1074 1082L1112 1201Q1118 1218 1123 1232T1136 1255T1156 1270T1189 1275H1338Q1349 1275 1363 1272T1389 1258Q1403 1247 1410 1234T1417 1201V183Q1417 27 1366 -95T1227 -301T1017 -429T757 -473Q703 -473 641 -464T518 -435T399 -387T297 -318Q285 -309
276 -297T264 -270T263 -238T280 -201L375 -70Q401 -42 424 -40T482 -64Q507 -88 539 -102T606 -125T674 -136T735 -139Q780 -139 829 -127T920 -92T995 -34T1040 44ZM468 638Q468 571 488 514T547 414T638 348T757 324Q821 324 877 346T976 409T1043 503T1072
620V653Q1069 714 1044 768T976 864T878 930T757 955Q692 955 639 930T547 861T489 760T468 638Z" />
<glyph unicode="h" glyph-name="h" horiz-adv-x="1405" d="M504 1137Q523 1165 550 1192T613 1241T696 1276T802 1290Q916 1290 1005 1246T1157 1126T1252 949T1285 732V77Q1285 39 1269 20T1216 0H985Q942 0 926 14T910 71V732Q910 775 894 812T849 876T784 919T704
935Q668 935 634 921T572 880T526 816T504 734V74Q504 57 498 40T478 14Q465 6 454 3T427 0H201Q158 0 139 21T120 77V891V898V1196V1201V1572Q120 1606 139 1627T201 1648H427Q450 1648 478 1632Q491 1623 497 1606T504 1574V1137Z" />
<glyph unicode="i" glyph-name="i" horiz-adv-x="623" d="M119 1192Q119 1224 137 1247T193 1270H422Q434 1270 448 1265T474 1249T494 1224T503 1192V77Q503 39 482 20T422 0H193Q119 0 119 77V1192ZM119 1698Q119 1740 137 1757T193 1775H425Q460 1775 481 1758T503
1698V1503Q503 1491 498 1477T482 1450T458 1429T425 1420H193Q119 1420 119 1503V1698Z" />
<glyph unicode="j" glyph-name="j" horiz-adv-x="628" d="M125 1192Q125 1231 150 1250T205 1270H432Q468 1270 488 1247T508 1192V44Q508 -49 469 -131T364 -274T213 -370T34 -405H10Q-26 -403 -45 -383T-64 -333V-190Q-64 -154 -42 -132T13 -110H34Q54 -110
71 -94T100 -53T118 -3T125 44V1192ZM120 1698Q120 1740 138 1757T194 1775H426Q461 1775 482 1758T504 1698V1503Q504 1491 499 1477T483 1450T459 1429T426 1420H194Q120 1420 120 1503V1698Z" />
<glyph unicode="k" glyph-name="k" horiz-adv-x="1413" d="M120 1571Q120 1588 121 1602T129 1626T153 1641T198 1647H437Q456 1647 468 1641T488 1624T498 1603T501 1581V841L861 1241Q887 1270 923 1270H1230Q1285 1270 1285 1227Q1285 1216 1282 1209T1267
1189L856 755L1373 91H1371Q1384 78 1389 65T1395 40Q1395 17 1383 9T1345 0H1007Q990 0 975 13T942 52L615 515L504 400V77Q504 69 502 56T492 31T471 9T437 0H186Q168 0 155 9T135 31T124 53T120 66V1571Z" />
<glyph unicode="l" glyph-name="l" horiz-adv-x="620" d="M120 1571Q120 1603 136 1625T191 1647H436Q446 1647 457 1642T477 1626T493 1602T500 1571V77Q500 39 479 20T423 0H191Q152 0 136 19T120 77V1571Z" />
<glyph unicode="m" glyph-name="m" horiz-adv-x="2131" d="M146 1253Q159 1264 173 1267T201 1270H352Q370 1270 383 1264T405 1246T419 1221T430 1192L461 1064Q476 1095 497 1134T554 1208T643 1266T777 1290Q905 1290 1001 1236T1159 1089Q1178 1120 1211 1155T1290
1221T1395 1270T1527 1290Q1641 1290 1730 1246T1882 1126T1977 949T2010 732V77Q2010 39 1994 20T1941 0H1710Q1667 0 1651 14T1635 71V732Q1635 775 1622 812T1584 876T1526 919T1449 935Q1411 935 1377 920T1317 879T1276 815T1260 732V77Q1260 39 1244 20T1191
0H1170H1162H960Q917 0 901 14T885 71V732Q885 775 873 812T837 876T780 919T704 935Q668 935 634 921T572 880T526 816T504 734V74Q504 57 498 40T478 14Q465 6 454 3T427 0H201Q158 0 139 21T120 77V1196Q120 1215 128 1231T152 1256L146 1253Z" />
<glyph unicode="n" glyph-name="n" horiz-adv-x="1445" d="M146 1253Q159 1264 173 1267T201 1270H352Q370 1270 383 1264T405 1246T419 1221T430 1192L461 1064Q476 1095 504 1134T577 1208T681 1266T822 1290Q936 1290 1029 1246T1187 1126T1289 949T1325 732V77Q1325
39 1309 20T1256 0H1025Q982 0 966 14T950 71V722Q950 765 931 803T879 871T807 918T724 935Q688 935 651 919T582 875T529 808T504 724V74Q504 57 498 40T478 14Q465 6 454 3T427 0H201Q158 0 139 21T120 77V1196Q120 1215 128 1231T152 1256L146 1253Z" />
<glyph unicode="o" glyph-name="o" horiz-adv-x="1473" d="M81 634Q81 726 104 811T170 968T272 1100T405 1202T562 1267T739 1290Q875 1290 994 1240T1202 1101T1342 893T1394 634Q1394 542 1371 458T1305 300T1203 168T1070 66T914 0T739 -23Q647 -23 563 0T405
65T273 167T171 300T105 457T81 634ZM446 634Q446 568 466 511T524 411T615 345T736 320Q801 320 853 344T942 411T998 510T1018 634Q1018 698 999 756T943 858T854 927T736 953Q669 953 616 928T525 858T467 756T446 634Z" />
<glyph unicode="p" glyph-name="p" horiz-adv-x="1527" d="M146 1258Q159 1269 173 1272T200 1275H351Q370 1275 382 1269T403 1253T416 1229T427 1199L469 1078Q497 1114 525 1151T593 1219T686 1270T818 1290Q955 1290 1070 1240T1269 1101T1400 893T1447 634Q1447
496 1400 376T1270 168T1071 28T818 -23Q753 -23 706 -8T623 33T558 88T503 148V-318Q503 -348 485 -369T429 -390H200Q188 -390 174 -385T148 -371T128 -349T120 -318V1201Q120 1221 127 1234T146 1258ZM1080 634Q1080 698 1059 755T1000 856T909 924T792 949Q729
949 673 926T574 862T505 766T475 649V634Q475 568 500 510T568 410T669 342T792 317Q856 317 909 342T1000 409T1059 510T1080 634Z" />
<glyph unicode="q" glyph-name="q" horiz-adv-x="1527" d="M1381 1258Q1392 1247 1399 1234T1407 1201V-315Q1407 -332 1399 -345T1379 -368T1353 -382T1327 -387H1098Q1059 -387 1042 -366T1024 -315V148Q997 118 965 88T893 33T808 -7T709 -23Q572 -23 457 28T258
167T127 376T80 634Q80 773 127 892T257 1100T456 1239T709 1290Q769 1290 820 1270T915 1220T994 1152T1058 1078L1101 1199Q1109 1231 1124 1253T1175 1275H1327Q1340 1275 1354 1272T1381 1258ZM445 634Q445 568 466 510T526 410T617 342T735 317Q800 317 858
342T959 409T1027 510T1052 634V649Q1049 711 1023 766T953 861T854 925T735 949Q671 949 618 924T526 856T467 756T445 634Z" />
<glyph unicode="r" glyph-name="r" horiz-adv-x="1151" d="M120 1196Q120 1213 127 1228T146 1253Q172 1270 200 1270H351Q370 1270 381 1263T399 1245T412 1220T426 1192Q428 1188 434 1173T447 1139T460 1104T469 1082Q499 1115 526 1151T585 1219T654 1270T744
1290Q798 1290 840 1282T921 1259T996 1219T1078 1163Q1147 1126 1104 1053L1013 898Q993 868 964 861T901 870Q858 912 814 932T712 953Q673 953 644 942T590 911T545 863T503 801V77Q503 39 485 20T423 0H198Q120 0 120 77V1196Z" />
<glyph unicode="s" glyph-name="s" horiz-adv-x="1158" d="M310 395Q337 368 368 350T429 320T480 303T510 298Q529 298 558 299T615 308T661 333T681 381Q681 409 670 425T638 453T587 474T518 495Q398 527 320 572T197 672T133 792T115 927Q115 1010 148 1078T242
1194T388 1269T577 1296Q640 1296 695 1286T800 1253T897 1195T992 1110Q1009 1090 1009 1073T987 1035Q948 1003 913 972T839 903Q827 893 815 891T792 891T771 901T753 918Q718 957 673 970T589 984Q540 984 511 967T484 915Q486 889 503 875T546 851T600 837T653
824Q743 795 818 761T948 678T1033 559T1064 391Q1064 292 1025 214T916 83T753 2T549 -26Q487 -26 423 -15T299 20T185 83T89 177Q78 191 73 206T67 237T73 264T91 286L220 415Q244 435 262 429T310 395Z" />
<glyph unicode="t" glyph-name="t" horiz-adv-x="859" d="M197 1468Q197 1499 217 1514T276 1544L503 1623Q508 1624 512 1624T521 1624Q558 1624 570 1603T583 1546L582 1231H749Q781 1231 801 1212T821 1155V962Q821 920 801 901T749 881H582L583 77Q583 39
561 20T500 0H274Q197 0 197 77L196 881H123Q46 881 46 962V1155Q46 1231 123 1231H196L197 1468Z" />
<glyph unicode="u" glyph-name="u" horiz-adv-x="1445" d="M1299 17Q1286 6 1272 3T1244 0H1093Q1075 0 1062 6T1040 24T1025 49T1015 78L984 206Q969 175 941 136T868 62T763 4T623 -20Q509 -20 416 24T258 144T156 321T120 538V1193Q120 1231 136 1250T189 1270H420Q463
1270 479 1256T495 1199V548Q495 505 514 467T566 399T638 352T721 335Q757 335 795 352T866 397T920 464T941 546V1196Q941 1213 947 1230T967 1256Q980 1264 991 1267T1018 1270H1244Q1287 1270 1306 1249T1325 1193V74Q1325 55 1317 39T1293 14L1299 17Z" />
<glyph unicode="v" glyph-name="v" horiz-adv-x="1276" d="M35 1171Q15 1212 27 1241T87 1270H343Q369 1270 388 1256T416 1216Q433 1163 453 1097T496 962T541 824T581 698T614 598T636 537L848 1216Q861 1248 877 1259T924 1270H1187Q1216 1270 1231 1263T1251
1244T1253 1217T1243 1184L767 43Q756 25 741 13T696 0H577Q537 0 521 11T496 43L35 1171Z" />
<glyph unicode="w" glyph-name="w" horiz-adv-x="1926" d="M40 1171Q20 1212 32 1241T92 1270H348Q374 1270 393 1256T421 1216Q438 1163 458 1098T501 964T546 829T586 706T619 607T641 547L853 1216Q866 1248 882 1259T929 1270H1166Q1195 1270 1210 1263T1230
1244T1232 1217T1222 1184L1112 915Q1119 898 1139 858T1184 766T1236 658T1281 552L1526 1216Q1539 1248 1552 1259T1593 1270H1814Q1862 1270 1880 1252T1882 1184L1413 43Q1404 25 1386 13T1332 0H1227Q1188 0 1170 12T1141 45L955 499L772 43Q761 25 746 13T701
0H582Q542 0 526 11T501 43L40 1171Z" />
<glyph unicode="x" glyph-name="x" horiz-adv-x="1362" d="M43 38Q40 52 48 65T62 88L460 649L83 1185Q73 1198 66 1213T60 1240T73 1261T112 1270H426Q443 1270 455 1256T484 1218L675 909Q694 936 719 977T770 1063T821 1150T864 1221Q881 1247 895 1258T930
1270H1247Q1259 1270 1269 1265T1286 1251T1291 1230T1278 1204L887 652L1276 108Q1288 91 1296 72T1304 37T1290 11T1244 0H920Q875 0 853 52L675 372L495 48Q484 26 467 13T434 0H86Q72 0 62 6T45 28L43 38Z" />
<glyph unicode="y" glyph-name="y" horiz-adv-x="1419" d="M43 1174Q27 1214 42 1242T111 1271H358Q383 1271 399 1256T423 1217L706 412L983 1217Q994 1249 1011 1260T1058 1271H1315Q1343 1271 1359 1264T1381 1244T1386 1216T1378 1185Q1340 1091 1295 980T1202
748T1103 503T1006 258T914 28T834 -175T770 -338T729 -446L732 -441Q725 -468 707 -484T663 -501H432Q387 -501 371 -484T354 -432Q354 -419 357 -412T363 -403L520 5L43 1174Z" />
<glyph unicode="z" glyph-name="z" horiz-adv-x="1201" d="M108 1197Q108 1232 129 1253T188 1275H1030Q1062 1275 1086 1256T1111 1197V1023Q1111 1014 1110 1002T1099 978L548 324H1042Q1078 324 1099 305T1121 243V86Q1121 71 1116 56T1100 28T1075 8T1042
0H160Q144 0 130 7T104 27T86 54T79 86V224Q79 238 81 251T96 278Q163 352 236 438T385 614T534 790T675 952H188Q151 952 130 972T108 1035V1197Z" />
<glyph unicode="{" glyph-name="braceleft" horiz-adv-x="887" d="M230 1320Q230 1411 270 1491T378 1631T532 1725T710 1760H730Q781 1755 781 1710V1408Q781 1386 768 1372T737 1357H719Q696 1357 676 1348T640 1324T616 1289T607 1245V777Q607 741 591 710T551
652Q574 625 590 594T607 524V47Q607 24 616 4T640 -32T675 -56T719 -65H737Q755 -65 768 -79T781 -116V-426Q781 -474 730 -477H710Q618 -477 532 -443T379 -349T271 -209T230 -37V434Q230 442 222 450T206 458H120Q76 458 76 506V797Q76 841 120 841H201Q230
841 230 869V1320Z" />
<glyph unicode="|" glyph-name="bar" horiz-adv-x="614" d="M162 1441Q162 1459 173 1472T206 1485H394Q409 1485 425 1473T442 1441V-340Q442 -384 394 -384H206Q162 -384 162 -340V1441Z" />
<glyph unicode="}" glyph-name="braceright" horiz-adv-x="879" d="M631 869Q631 841 660 841H741Q785 841 785 797V506Q785 458 741 458H655Q647 458 639 450T631 434V-37Q631 -129 590 -209T482 -348T328 -442T150 -477H130Q80 -474 80 -426V-116Q80 -94 93
-80T124 -65H142Q165 -65 185 -56T221 -32T245 3T254 47V524Q254 562 270 593T310 652Q287 678 271 709T254 777V1245Q254 1268 245 1288T221 1324T186 1348T142 1357H124Q106 1357 93 1371T80 1408V1710Q80 1755 130 1760H150Q241 1760 328 1726T482 1632T590
1492T631 1320V869Z" />
<glyph unicode="~" glyph-name="asciitilde" horiz-adv-x="1318" d="M161 691Q219 772 299 814T473 856Q531 856 586 837T695 785L777 732Q805 713 843 713Q901 713 931 757L970 814Q981 831 1005 831Q1019 831 1036 820L1186 719Q1203 705 1203 686Q1203 674
1195 658L1155 603Q1097 522 1017 480T843 438Q785 436 729 455T620 508L539 561Q507 581 473 581Q417 581 385 537L345 479Q334 465 316 463T279 473L130 574Q112 584 112 607Q112 610 113 614T119 628T133 652T161 691Z" />
</font>
</defs>
</svg>
