<svg width="393" height="85" viewBox="0 0 393 85" fill="none" xmlns="http://www.w3.org/2000/svg">
<path d="M44.2318 42.8387C45.3158 43.7664 47.0727 43.7664 48.1567 42.8387L50.1182 41.1598C51.2022 40.2321 51.2022 38.7284 50.1182 37.8007L43.923 32.5L50.1165 27.1978C51.2005 26.2701 51.2005 24.7664 50.1165 23.8387L48.1549 22.1598C47.0709 21.2321 45.314 21.2321 44.23 22.1598L34.1117 30.8197C33.0277 31.7474 33.0277 33.2511 34.1117 34.1788L44.2318 42.8387V42.8387ZM60.8835 41.1613L62.8451 42.8402C63.9291 43.7679 65.686 43.7679 66.77 42.8402L76.8883 34.1803C77.9723 33.2526 77.9723 31.7489 76.8883 30.8212L66.77 22.1613C65.686 21.2336 63.9291 21.2336 62.8451 22.1613L60.8835 23.8402C59.7995 24.7679 59.7995 26.2716 60.8835 27.1993L67.077 32.5L60.8835 37.8022C59.7995 38.7299 59.7995 40.2336 60.8835 41.1613V41.1613ZM108.225 65.75H66.1733C66.045 68.6905 63.6221 70.5 60.495 70.5H49.95C46.7085 70.5 44.2231 67.9068 44.2665 65.75H2.775C1.24875 65.75 0 66.8187 0 68.125V70.5C0 75.725 4.995 80 11.1 80H99.9C106.005 80 111 75.725 111 70.5V68.125C111 66.8187 109.751 65.75 108.225 65.75ZM99.9 11.125C99.9 7.20625 96.1538 4 91.575 4H19.425C14.8463 4 11.1 7.20625 11.1 11.125V61H99.9V11.125ZM88.8 51.5H22.2V13.5H88.8V51.5Z" fill="#EC5242"/>
<path d="M142.328 25.55L138.863 16.345C138.583 15.6333 138.297 14.7292 138.005 13.6325C137.877 14.1808 137.737 14.6883 137.585 15.155C137.433 15.61 137.293 16.0125 137.165 16.3625L133.7 25.55H142.328ZM150.08 35H146.913C146.551 35 146.259 34.9125 146.038 34.7375C145.816 34.5508 145.647 34.3233 145.53 34.055L143.43 28.49H132.58L130.48 34.055C130.387 34.2883 130.223 34.5042 129.99 34.7025C129.757 34.9008 129.465 35 129.115 35H125.947L135.94 9.8H140.088L150.08 35ZM152.252 35V17.15H154.527C155.041 17.15 155.367 17.3892 155.507 17.8675L155.752 19.425C156.079 19.0517 156.417 18.7133 156.767 18.41C157.117 18.095 157.491 17.8267 157.887 17.605C158.296 17.3717 158.727 17.1908 159.182 17.0625C159.649 16.9342 160.151 16.87 160.687 16.87C161.259 16.87 161.784 16.9517 162.262 17.115C162.741 17.2783 163.161 17.5117 163.522 17.815C163.896 18.1183 164.217 18.4858 164.485 18.9175C164.753 19.3492 164.975 19.8333 165.15 20.37C165.418 19.7517 165.757 19.2208 166.165 18.7775C166.573 18.3342 167.028 17.9725 167.53 17.6925C168.032 17.4125 168.562 17.2083 169.122 17.08C169.694 16.94 170.272 16.87 170.855 16.87C171.812 16.87 172.663 17.0217 173.41 17.325C174.168 17.6283 174.804 18.0717 175.317 18.655C175.842 19.2267 176.239 19.9325 176.507 20.7725C176.776 21.6125 176.91 22.5692 176.91 23.6425V35H173.147V23.6425C173.147 22.3825 172.873 21.4375 172.325 20.8075C171.788 20.1658 170.989 19.845 169.927 19.845C169.449 19.845 169 19.9267 168.58 20.09C168.16 20.2533 167.792 20.4925 167.477 20.8075C167.162 21.1225 166.912 21.5192 166.725 21.9975C166.55 22.4642 166.462 23.0125 166.462 23.6425V35H162.7V23.6425C162.7 22.3358 162.437 21.3792 161.912 20.7725C161.387 20.1542 160.617 19.845 159.602 19.845C158.902 19.845 158.255 20.0258 157.66 20.3875C157.065 20.7375 156.517 21.2217 156.015 21.84V35H152.252ZM185.068 9.1V24.115H185.873C186.129 24.115 186.339 24.08 186.503 24.01C186.666 23.94 186.835 23.7942 187.01 23.5725L192.015 17.85C192.19 17.6167 192.383 17.4417 192.593 17.325C192.803 17.2083 193.071 17.15 193.398 17.15H196.81L190.79 23.94C190.44 24.395 190.055 24.7567 189.635 25.025C189.869 25.1883 190.073 25.375 190.248 25.585C190.423 25.7833 190.592 26.0108 190.755 26.2675L197.178 35H193.818C193.514 35 193.252 34.9533 193.03 34.86C192.82 34.755 192.634 34.5683 192.47 34.3L187.308 27.3C187.133 27.0317 186.958 26.8625 186.783 26.7925C186.608 26.7108 186.345 26.67 185.995 26.67H185.068V35H181.305V9.1H185.068ZM209.129 27.195C207.787 27.2417 206.655 27.3525 205.734 27.5275C204.812 27.6908 204.065 27.9067 203.494 28.175C202.922 28.4317 202.508 28.7408 202.251 29.1025C202.006 29.4642 201.884 29.8608 201.884 30.2925C201.884 30.7125 201.948 31.0742 202.076 31.3775C202.216 31.6692 202.403 31.9142 202.636 32.1125C202.881 32.2992 203.161 32.4392 203.476 32.5325C203.803 32.6142 204.159 32.655 204.544 32.655C205.524 32.655 206.364 32.4742 207.064 32.1125C207.775 31.7392 208.464 31.2025 209.129 30.5025V27.195ZM199.154 19.635C201.172 17.7567 203.575 16.8175 206.364 16.8175C207.39 16.8175 208.3 16.9867 209.094 17.325C209.899 17.6517 210.57 18.1183 211.106 18.725C211.655 19.3317 212.069 20.055 212.349 20.895C212.64 21.7233 212.786 22.645 212.786 23.66V35H211.106C210.745 35 210.47 34.9475 210.284 34.8425C210.097 34.7258 209.94 34.4983 209.811 34.16L209.444 32.7075C208.989 33.1158 208.54 33.4833 208.096 33.81C207.653 34.125 207.192 34.3933 206.714 34.615C206.247 34.8367 205.74 35 205.191 35.105C204.655 35.2217 204.06 35.28 203.406 35.28C202.683 35.28 202.006 35.1808 201.376 34.9825C200.758 34.7842 200.221 34.4867 199.766 34.09C199.311 33.6817 198.95 33.18 198.681 32.585C198.425 31.99 198.296 31.29 198.296 30.485C198.296 29.7967 198.477 29.1258 198.839 28.4725C199.212 27.8192 199.819 27.2358 200.659 26.7225C201.51 26.1975 202.625 25.7658 204.001 25.4275C205.39 25.0892 207.099 24.8967 209.129 24.85V23.66C209.129 22.3767 208.855 21.42 208.306 20.79C207.758 20.16 206.953 19.845 205.891 19.845C205.168 19.845 204.561 19.9383 204.071 20.125C203.581 20.3 203.155 20.4925 202.794 20.7025C202.432 20.9125 202.111 21.1108 201.831 21.2975C201.551 21.4725 201.254 21.56 200.939 21.56C200.682 21.56 200.46 21.4958 200.274 21.3675C200.099 21.2275 199.953 21.0583 199.836 20.86L199.154 19.635ZM217.194 35V17.15H219.469C219.982 17.15 220.309 17.3892 220.449 17.8675L220.694 19.425C221.021 19.0517 221.359 18.7133 221.709 18.41C222.059 18.095 222.432 17.8267 222.829 17.605C223.237 17.3717 223.669 17.1908 224.124 17.0625C224.591 16.9342 225.092 16.87 225.629 16.87C226.201 16.87 226.726 16.9517 227.204 17.115C227.682 17.2783 228.102 17.5117 228.464 17.815C228.837 18.1183 229.158 18.4858 229.426 18.9175C229.695 19.3492 229.916 19.8333 230.091 20.37C230.36 19.7517 230.698 19.2208 231.106 18.7775C231.515 18.3342 231.97 17.9725 232.471 17.6925C232.973 17.4125 233.504 17.2083 234.064 17.08C234.636 16.94 235.213 16.87 235.796 16.87C236.753 16.87 237.605 17.0217 238.351 17.325C239.11 17.6283 239.746 18.0717 240.259 18.655C240.784 19.2267 241.181 19.9325 241.449 20.7725C241.717 21.6125 241.851 22.5692 241.851 23.6425V35H238.089V23.6425C238.089 22.3825 237.815 21.4375 237.266 20.8075C236.73 20.1658 235.931 19.845 234.869 19.845C234.391 19.845 233.941 19.9267 233.521 20.09C233.101 20.2533 232.734 20.4925 232.419 20.8075C232.104 21.1225 231.853 21.5192 231.666 21.9975C231.491 22.4642 231.404 23.0125 231.404 23.6425V35H227.641V23.6425C227.641 22.3358 227.379 21.3792 226.854 20.7725C226.329 20.1542 225.559 19.845 224.544 19.845C223.844 19.845 223.196 20.0258 222.601 20.3875C222.006 20.7375 221.458 21.2217 220.956 21.84V35H217.194Z" fill="black"/>
<path d="M154.9 61.54C154.9 63.66 154.547 65.6067 153.84 67.38C153.133 69.1533 152.14 70.68 150.86 71.96C149.58 73.24 148.04 74.2333 146.24 74.94C144.44 75.6467 142.44 76 140.24 76H129.22V47.08H140.24C142.44 47.08 144.44 47.44 146.24 48.16C148.04 48.8667 149.58 49.86 150.86 51.14C152.14 52.4067 153.133 53.9267 153.84 55.7C154.547 57.4733 154.9 59.42 154.9 61.54ZM149.38 61.54C149.38 59.9533 149.167 58.5333 148.74 57.28C148.327 56.0133 147.72 54.9467 146.92 54.08C146.133 53.2 145.173 52.5267 144.04 52.06C142.92 51.5933 141.653 51.36 140.24 51.36H134.62V71.72H140.24C141.653 71.72 142.92 71.4867 144.04 71.02C145.173 70.5533 146.133 69.8867 146.92 69.02C147.72 68.14 148.327 67.0733 148.74 65.82C149.167 64.5533 149.38 63.1267 149.38 61.54ZM171.816 63.38C171.816 62.74 171.723 62.14 171.536 61.58C171.363 61.0067 171.096 60.5067 170.736 60.08C170.376 59.6533 169.916 59.32 169.356 59.08C168.81 58.8267 168.17 58.7 167.436 58.7C166.01 58.7 164.883 59.1067 164.056 59.92C163.243 60.7333 162.723 61.8867 162.496 63.38H171.816ZM162.396 66.36C162.476 67.4133 162.663 68.3267 162.956 69.1C163.25 69.86 163.636 70.4933 164.116 71C164.596 71.4933 165.163 71.8667 165.816 72.12C166.483 72.36 167.216 72.48 168.016 72.48C168.816 72.48 169.503 72.3867 170.076 72.2C170.663 72.0133 171.17 71.8067 171.596 71.58C172.036 71.3533 172.416 71.1467 172.736 70.96C173.07 70.7733 173.39 70.68 173.696 70.68C174.11 70.68 174.416 70.8333 174.616 71.14L176.036 72.94C175.49 73.58 174.876 74.12 174.196 74.56C173.516 74.9867 172.803 75.3333 172.056 75.6C171.323 75.8533 170.57 76.0333 169.796 76.14C169.036 76.2467 168.296 76.3 167.576 76.3C166.15 76.3 164.823 76.0667 163.596 75.6C162.37 75.12 161.303 74.42 160.396 73.5C159.49 72.5667 158.776 71.42 158.256 70.06C157.736 68.6867 157.476 67.1 157.476 65.3C157.476 63.9 157.703 62.5867 158.156 61.36C158.61 60.12 159.256 59.0467 160.096 58.14C160.95 57.22 161.983 56.4933 163.196 55.96C164.423 55.4267 165.803 55.16 167.336 55.16C168.63 55.16 169.823 55.3667 170.916 55.78C172.01 56.1933 172.95 56.8 173.736 57.6C174.523 58.3867 175.136 59.36 175.576 60.52C176.03 61.6667 176.256 62.98 176.256 64.46C176.256 65.2067 176.176 65.7133 176.016 65.98C175.856 66.2333 175.55 66.36 175.096 66.36H162.396ZM197.956 55.48L189.816 76H185.336L177.196 55.48H181.276C181.649 55.48 181.956 55.5667 182.196 55.74C182.449 55.9133 182.616 56.1333 182.696 56.4L186.656 67.36C186.869 68 187.056 68.6267 187.216 69.24C187.376 69.8533 187.516 70.4667 187.636 71.08C187.769 70.4667 187.916 69.8533 188.076 69.24C188.236 68.6267 188.429 68 188.656 67.36L192.696 56.4C192.789 56.1333 192.956 55.9133 193.196 55.74C193.436 55.5667 193.722 55.48 194.056 55.48H197.956ZM211.759 71.8C212.759 71.8 213.599 71.68 214.279 71.44C214.959 71.2 215.499 70.88 215.899 70.48C216.312 70.08 216.605 69.6133 216.779 69.08C216.965 68.5467 217.059 67.98 217.059 67.38C217.059 66.7533 216.959 66.1933 216.759 65.7C216.559 65.1933 216.245 64.7667 215.819 64.42C215.392 64.06 214.839 63.7867 214.159 63.6C213.492 63.4133 212.685 63.32 211.739 63.32H206.319V71.8H211.759ZM206.319 51.24V59.6H210.599C212.439 59.6 213.825 59.2667 214.759 58.6C215.705 57.9333 216.179 56.8733 216.179 55.42C216.179 53.9133 215.752 52.84 214.899 52.2C214.045 51.56 212.712 51.24 210.899 51.24H206.319ZM210.899 47.08C212.792 47.08 214.412 47.26 215.759 47.62C217.105 47.98 218.205 48.4933 219.059 49.16C219.925 49.8267 220.559 50.6333 220.959 51.58C221.359 52.5267 221.559 53.5933 221.559 54.78C221.559 55.46 221.459 56.1133 221.259 56.74C221.059 57.3533 220.745 57.9333 220.319 58.48C219.905 59.0133 219.372 59.5 218.719 59.94C218.079 60.38 217.312 60.7533 216.419 61.06C220.392 61.9533 222.379 64.1 222.379 67.5C222.379 68.7267 222.145 69.86 221.679 70.9C221.212 71.94 220.532 72.84 219.639 73.6C218.745 74.3467 217.645 74.9333 216.339 75.36C215.032 75.7867 213.539 76 211.859 76H200.939V47.08H210.899ZM235.293 55.16C236.813 55.16 238.193 55.4067 239.433 55.9C240.687 56.3933 241.753 57.0933 242.633 58C243.527 58.9067 244.213 60.0133 244.693 61.32C245.173 62.6267 245.413 64.0867 245.413 65.7C245.413 67.3267 245.173 68.7933 244.693 70.1C244.213 71.4067 243.527 72.52 242.633 73.44C241.753 74.36 240.687 75.0667 239.433 75.56C238.193 76.0533 236.813 76.3 235.293 76.3C233.76 76.3 232.367 76.0533 231.113 75.56C229.86 75.0667 228.787 74.36 227.893 73.44C227.013 72.52 226.327 71.4067 225.833 70.1C225.353 68.7933 225.113 67.3267 225.113 65.7C225.113 64.0867 225.353 62.6267 225.833 61.32C226.327 60.0133 227.013 58.9067 227.893 58C228.787 57.0933 229.86 56.3933 231.113 55.9C232.367 55.4067 233.76 55.16 235.293 55.16ZM235.293 72.5C237 72.5 238.26 71.9267 239.073 70.78C239.9 69.6333 240.313 67.9533 240.313 65.74C240.313 63.5267 239.9 61.84 239.073 60.68C238.26 59.52 237 58.94 235.293 58.94C233.56 58.94 232.273 59.5267 231.433 60.7C230.607 61.86 230.193 63.54 230.193 65.74C230.193 67.94 230.607 69.62 231.433 70.78C232.273 71.9267 233.56 72.5 235.293 72.5ZM258.262 55.16C259.782 55.16 261.162 55.4067 262.402 55.9C263.656 56.3933 264.722 57.0933 265.602 58C266.496 58.9067 267.182 60.0133 267.662 61.32C268.142 62.6267 268.382 64.0867 268.382 65.7C268.382 67.3267 268.142 68.7933 267.662 70.1C267.182 71.4067 266.496 72.52 265.602 73.44C264.722 74.36 263.656 75.0667 262.402 75.56C261.162 76.0533 259.782 76.3 258.262 76.3C256.729 76.3 255.336 76.0533 254.082 75.56C252.829 75.0667 251.756 74.36 250.862 73.44C249.982 72.52 249.296 71.4067 248.802 70.1C248.322 68.7933 248.082 67.3267 248.082 65.7C248.082 64.0867 248.322 62.6267 248.802 61.32C249.296 60.0133 249.982 58.9067 250.862 58C251.756 57.0933 252.829 56.3933 254.082 55.9C255.336 55.4067 256.729 55.16 258.262 55.16ZM258.262 72.5C259.969 72.5 261.229 71.9267 262.042 70.78C262.869 69.6333 263.282 67.9533 263.282 65.74C263.282 63.5267 262.869 61.84 262.042 60.68C261.229 59.52 259.969 58.94 258.262 58.94C256.529 58.94 255.242 59.5267 254.402 60.7C253.576 61.86 253.162 63.54 253.162 65.74C253.162 67.94 253.576 69.62 254.402 70.78C255.242 71.9267 256.529 72.5 258.262 72.5ZM278.6 76.32C276.814 76.32 275.44 75.82 274.48 74.82C273.534 73.8067 273.06 72.4133 273.06 70.64V59.18H270.96C270.694 59.18 270.467 59.0933 270.28 58.92C270.094 58.7467 270 58.4867 270 58.14V56.18L273.3 55.64L274.34 50.04C274.407 49.7733 274.534 49.5667 274.72 49.42C274.907 49.2733 275.147 49.2 275.44 49.2H278V55.66H283.48V59.18H278V70.3C278 70.94 278.154 71.44 278.46 71.8C278.78 72.16 279.214 72.34 279.76 72.34C280.067 72.34 280.32 72.3067 280.52 72.24C280.734 72.16 280.914 72.08 281.06 72C281.22 71.92 281.36 71.8467 281.48 71.78C281.6 71.7 281.72 71.66 281.84 71.66C281.987 71.66 282.107 71.7 282.2 71.78C282.294 71.8467 282.394 71.9533 282.5 72.1L283.98 74.5C283.26 75.1 282.434 75.5533 281.5 75.86C280.567 76.1667 279.6 76.32 278.6 76.32ZM301.187 59.82C301.04 60.0067 300.894 60.1533 300.747 60.26C300.614 60.3667 300.414 60.42 300.147 60.42C299.894 60.42 299.647 60.3467 299.407 60.2C299.167 60.04 298.88 59.8667 298.547 59.68C298.214 59.48 297.814 59.3067 297.347 59.16C296.894 59 296.327 58.92 295.647 58.92C294.78 58.92 294.02 59.08 293.367 59.4C292.714 59.7067 292.167 60.1533 291.727 60.74C291.3 61.3267 290.98 62.04 290.767 62.88C290.554 63.7067 290.447 64.6467 290.447 65.7C290.447 66.7933 290.56 67.7667 290.787 68.62C291.027 69.4733 291.367 70.1933 291.807 70.78C292.247 71.3533 292.78 71.7933 293.407 72.1C294.034 72.3933 294.74 72.54 295.527 72.54C296.314 72.54 296.947 72.4467 297.427 72.26C297.92 72.06 298.334 71.8467 298.667 71.62C299 71.38 299.287 71.1667 299.527 70.98C299.78 70.78 300.06 70.68 300.367 70.68C300.767 70.68 301.067 70.8333 301.267 71.14L302.687 72.94C302.14 73.58 301.547 74.12 300.907 74.56C300.267 74.9867 299.6 75.3333 298.907 75.6C298.227 75.8533 297.52 76.0333 296.787 76.14C296.067 76.2467 295.347 76.3 294.627 76.3C293.36 76.3 292.167 76.0667 291.047 75.6C289.927 75.12 288.947 74.4267 288.107 73.52C287.267 72.6133 286.6 71.5067 286.107 70.2C285.627 68.88 285.387 67.38 285.387 65.7C285.387 64.1933 285.6 62.8 286.027 61.52C286.467 60.2267 287.107 59.1133 287.947 58.18C288.787 57.2333 289.827 56.4933 291.067 55.96C292.307 55.4267 293.734 55.16 295.347 55.16C296.88 55.16 298.22 55.4067 299.367 55.9C300.527 56.3933 301.567 57.1 302.487 58.02L301.187 59.82ZM316.624 67.24C315.197 67.3067 313.997 67.4333 313.024 67.62C312.05 67.7933 311.27 68.02 310.684 68.3C310.097 68.58 309.677 68.9067 309.424 69.28C309.17 69.6533 309.044 70.06 309.044 70.5C309.044 71.3667 309.297 71.9867 309.804 72.36C310.324 72.7333 310.997 72.92 311.824 72.92C312.837 72.92 313.71 72.74 314.444 72.38C315.19 72.0067 315.917 71.4467 316.624 70.7V67.24ZM305.304 58.34C307.664 56.18 310.504 55.1 313.824 55.1C315.024 55.1 316.097 55.3 317.044 55.7C317.99 56.0867 318.79 56.6333 319.444 57.34C320.097 58.0333 320.59 58.8667 320.924 59.84C321.27 60.8133 321.444 61.88 321.444 63.04V76H319.204C318.737 76 318.377 75.9333 318.124 75.8C317.87 75.6533 317.67 75.3667 317.524 74.94L317.084 73.46C316.564 73.9267 316.057 74.34 315.564 74.7C315.07 75.0467 314.557 75.34 314.024 75.58C313.49 75.82 312.917 76 312.304 76.12C311.704 76.2533 311.037 76.32 310.304 76.32C309.437 76.32 308.637 76.2067 307.904 75.98C307.17 75.74 306.537 75.3867 306.004 74.92C305.47 74.4533 305.057 73.8733 304.764 73.18C304.47 72.4867 304.324 71.68 304.324 70.76C304.324 70.24 304.41 69.7267 304.584 69.22C304.757 68.7 305.037 68.2067 305.424 67.74C305.824 67.2733 306.337 66.8333 306.964 66.42C307.59 66.0067 308.357 65.6467 309.264 65.34C310.184 65.0333 311.25 64.7867 312.464 64.6C313.677 64.4 315.064 64.28 316.624 64.24V63.04C316.624 61.6667 316.33 60.6533 315.744 60C315.157 59.3333 314.31 59 313.204 59C312.404 59 311.737 59.0933 311.204 59.28C310.684 59.4667 310.224 59.68 309.824 59.92C309.424 60.1467 309.057 60.3533 308.724 60.54C308.404 60.7267 308.044 60.82 307.644 60.82C307.297 60.82 307.004 60.7333 306.764 60.56C306.524 60.3733 306.33 60.16 306.184 59.92L305.304 58.34ZM326.096 76V55.48H329.116C329.756 55.48 330.176 55.78 330.376 56.38L330.696 57.9C331.056 57.5 331.43 57.1333 331.816 56.8C332.216 56.4667 332.636 56.18 333.076 55.94C333.53 55.7 334.01 55.5133 334.516 55.38C335.036 55.2333 335.603 55.16 336.216 55.16C337.51 55.16 338.57 55.5133 339.396 56.22C340.236 56.9133 340.863 57.84 341.276 59C341.596 58.32 341.996 57.74 342.476 57.26C342.956 56.7667 343.483 56.3667 344.056 56.06C344.63 55.7533 345.236 55.5267 345.876 55.38C346.53 55.2333 347.183 55.16 347.836 55.16C348.97 55.16 349.976 55.3333 350.856 55.68C351.736 56.0267 352.476 56.5333 353.076 57.2C353.676 57.8667 354.13 58.68 354.436 59.64C354.756 60.6 354.916 61.7 354.916 62.94V76H349.976V62.94C349.976 61.6333 349.69 60.6533 349.116 60C348.543 59.3333 347.703 59 346.596 59C346.09 59 345.616 59.0867 345.176 59.26C344.75 59.4333 344.37 59.6867 344.036 60.02C343.716 60.34 343.463 60.7467 343.276 61.24C343.09 61.7333 342.996 62.3 342.996 62.94V76H338.036V62.94C338.036 61.5667 337.756 60.5667 337.196 59.94C336.65 59.3133 335.843 59 334.776 59C334.056 59 333.383 59.18 332.756 59.54C332.143 59.8867 331.57 60.3667 331.036 60.98V76H326.096ZM364.552 70.68C365.112 71.36 365.719 71.84 366.372 72.12C367.039 72.4 367.759 72.54 368.532 72.54C369.279 72.54 369.952 72.4 370.552 72.12C371.152 71.84 371.659 71.4133 372.072 70.84C372.499 70.2667 372.825 69.5467 373.052 68.68C373.279 67.8 373.392 66.7667 373.392 65.58C373.392 64.38 373.292 63.3667 373.092 62.54C372.905 61.7 372.632 61.02 372.272 60.5C371.912 59.98 371.472 59.6 370.952 59.36C370.445 59.12 369.865 59 369.212 59C368.185 59 367.312 59.22 366.592 59.66C365.872 60.0867 365.192 60.6933 364.552 61.48V70.68ZM364.292 58.28C365.132 57.3333 366.085 56.5667 367.152 55.98C368.219 55.3933 369.472 55.1 370.912 55.1C372.032 55.1 373.052 55.3333 373.972 55.8C374.905 56.2667 375.705 56.9467 376.372 57.84C377.052 58.72 377.572 59.8133 377.932 61.12C378.305 62.4133 378.492 63.9 378.492 65.58C378.492 67.1133 378.285 68.5333 377.872 69.84C377.459 71.1467 376.865 72.28 376.092 73.24C375.332 74.2 374.405 74.9533 373.312 75.5C372.232 76.0333 371.019 76.3 369.672 76.3C368.525 76.3 367.545 76.1267 366.732 75.78C365.919 75.42 365.192 74.9267 364.552 74.3V82.7H359.612V55.48H362.632C363.272 55.48 363.692 55.78 363.892 56.38L364.292 58.28Z" fill="black"/>
</svg>
