<svg width="220" height="220" viewBox="0 0 220 220" fill="none" xmlns="http://www.w3.org/2000/svg">
<rect width="20" height="20" fill="#C4C4C4"/>
<rect y="40" width="20" height="20" fill="#C4C4C4"/>
<rect y="80" width="20" height="20" fill="#C4C4C4"/>
<rect y="120" width="20" height="20" fill="#C4C4C4"/>
<rect y="160" width="20" height="20" fill="#C4C4C4"/>
<rect y="200" width="20" height="20" fill="#C4C4C4"/>
<rect x="20" y="20" width="20" height="20" fill="#C4C4C4"/>
<rect x="20" y="60" width="20" height="20" fill="#C4C4C4"/>
<rect x="20" y="100" width="20" height="20" fill="#C4C4C4"/>
<rect x="20" y="140" width="20" height="20" fill="#C4C4C4"/>
<rect x="20" y="180" width="20" height="20" fill="#C4C4C4"/>
<rect x="60" y="20" width="20" height="20" fill="#C4C4C4"/>
<rect x="60" y="60" width="20" height="20" fill="#C4C4C4"/>
<rect x="60" y="100" width="20" height="20" fill="#C4C4C4"/>
<rect x="60" y="140" width="20" height="20" fill="#C4C4C4"/>
<rect x="60" y="180" width="20" height="20" fill="#C4C4C4"/>
<rect x="100" y="20" width="20" height="20" fill="#C4C4C4"/>
<rect x="100" y="60" width="20" height="20" fill="#C4C4C4"/>
<rect x="100" y="100" width="20" height="20" fill="#C4C4C4"/>
<rect x="100" y="140" width="20" height="20" fill="#C4C4C4"/>
<rect x="100" y="180" width="20" height="20" fill="#C4C4C4"/>
<rect x="140" y="20" width="20" height="20" fill="#C4C4C4"/>
<rect x="140" y="60" width="20" height="20" fill="#C4C4C4"/>
<rect x="140" y="100" width="20" height="20" fill="#C4C4C4"/>
<rect x="140" y="140" width="20" height="20" fill="#C4C4C4"/>
<rect x="140" y="180" width="20" height="20" fill="#C4C4C4"/>
<rect x="180" y="20" width="20" height="20" fill="#C4C4C4"/>
<rect x="180" y="60" width="20" height="20" fill="#C4C4C4"/>
<rect x="180" y="100" width="20" height="20" fill="#C4C4C4"/>
<rect x="180" y="140" width="20" height="20" fill="#C4C4C4"/>
<rect x="180" y="180" width="20" height="20" fill="#C4C4C4"/>
<rect x="40" width="20" height="20" fill="#C4C4C4"/>
<rect x="40" y="40" width="20" height="20" fill="#C4C4C4"/>
<rect x="40" y="80" width="20" height="20" fill="#C4C4C4"/>
<rect x="40" y="120" width="20" height="20" fill="#C4C4C4"/>
<rect x="40" y="160" width="20" height="20" fill="#C4C4C4"/>
<rect x="40" y="200" width="20" height="20" fill="#C4C4C4"/>
<rect x="80" width="20" height="20" fill="#C4C4C4"/>
<rect x="80" y="40" width="20" height="20" fill="#C4C4C4"/>
<rect x="80" y="80" width="20" height="20" fill="#C4C4C4"/>
<rect x="80" y="120" width="20" height="20" fill="#C4C4C4"/>
<rect x="80" y="160" width="20" height="20" fill="#C4C4C4"/>
<rect x="80" y="200" width="20" height="20" fill="#C4C4C4"/>
<rect x="120" width="20" height="20" fill="#C4C4C4"/>
<rect x="120" y="40" width="20" height="20" fill="#C4C4C4"/>
<rect x="120" y="80" width="20" height="20" fill="#C4C4C4"/>
<rect x="120" y="120" width="20" height="20" fill="#C4C4C4"/>
<rect x="120" y="160" width="20" height="20" fill="#C4C4C4"/>
<rect x="120" y="200" width="20" height="20" fill="#C4C4C4"/>
<rect x="160" width="20" height="20" fill="#C4C4C4"/>
<rect x="160" y="40" width="20" height="20" fill="#C4C4C4"/>
<rect x="160" y="80" width="20" height="20" fill="#C4C4C4"/>
<rect x="160" y="120" width="20" height="20" fill="#C4C4C4"/>
<rect x="160" y="160" width="20" height="20" fill="#C4C4C4"/>
<rect x="160" y="200" width="20" height="20" fill="#C4C4C4"/>
<rect x="200" width="20" height="20" fill="#C4C4C4"/>
<rect x="200" y="40" width="20" height="20" fill="#C4C4C4"/>
<rect x="200" y="80" width="20" height="20" fill="#C4C4C4"/>
<rect x="200" y="120" width="20" height="20" fill="#C4C4C4"/>
<rect x="200" y="160" width="20" height="20" fill="#C4C4C4"/>
<rect x="200" y="200" width="20" height="20" fill="#C4C4C4"/>
</svg>
